<svg width="150" height="50" viewBox="0 0 150 50" fill="none" xmlns="http://www.w3.org/2000/svg">
<g clip-path="url(#clip0_498_3455)">
<path d="M144.663 47.2223H5.25444C2.35778 47.2223 0 44.8578 0 41.9634V8.02894C0 5.13339 2.35778 2.77783 5.25444 2.77783H144.663C147.559 2.77783 150 5.13339 150 8.02894V41.9634C150 44.8578 147.559 47.2223 144.663 47.2223Z" fill="#A6A6A6"/>
<path d="M148.924 41.9644C148.924 44.3155 147.02 46.2199 144.664 46.2199H5.25445C2.9 46.2199 0.988892 44.3155 0.988892 41.9644V8.02771C0.988892 5.67771 2.9 3.7666 5.25445 3.7666H144.663C147.02 3.7666 148.923 5.67771 148.923 8.02771L148.924 41.9644Z" fill="black"/>
<path d="M33.4756 24.7602C33.4434 21.1791 36.4078 19.4369 36.5434 19.3558C34.8645 16.908 32.2623 16.5736 31.3478 16.5469C29.1623 16.3169 27.0423 17.8547 25.9289 17.8547C24.7934 17.8547 23.0789 16.5691 21.2311 16.6069C18.8534 16.6436 16.6289 18.0202 15.4089 20.158C12.8911 24.5169 14.7689 30.9224 17.1811 34.4458C18.3878 36.1713 19.7978 38.098 21.6434 38.0302C23.4489 37.9558 24.1234 36.8791 26.3023 36.8791C28.4611 36.8791 29.0945 38.0302 30.9767 37.9869C32.9145 37.9558 34.1345 36.2536 35.2989 34.5124C36.6934 32.5347 37.2534 30.5869 37.2756 30.4869C37.23 30.4713 33.5123 29.0524 33.4756 24.7602Z" fill="white"/>
<path d="M29.92 14.2289C30.8912 13.0144 31.5556 11.3622 31.3712 9.68555C29.9656 9.74777 28.2078 10.6578 27.1956 11.8455C26.3 12.8922 25.5 14.6078 25.7067 16.2211C27.2856 16.3389 28.9067 15.4244 29.92 14.2289Z" fill="white"/>
<path d="M59.6055 37.7823H57.0822L55.7 33.4389H50.8955L49.5789 37.7823H47.1222L51.8822 22.9956H54.8222L59.6055 37.7823ZM55.2833 31.6167L54.0333 27.7556C53.9011 27.3612 53.6533 26.4323 53.2877 24.9701H53.2433C53.0977 25.5989 52.8633 26.5278 52.5411 27.7556L51.3133 31.6167H55.2833Z" fill="white"/>
<path d="M71.8466 32.3198C71.8466 34.1331 71.3566 35.5664 70.3766 36.6187C69.4989 37.5553 68.4089 38.0231 67.1077 38.0231C65.7033 38.0231 64.6944 37.5187 64.08 36.5098H64.0355V42.1264H61.6666V30.6298C61.6666 29.4898 61.6366 28.3198 61.5789 27.1198H63.6622L63.7944 28.8098H63.8389C64.6289 27.5364 65.8277 26.9009 67.4366 26.9009C68.6944 26.9009 69.7444 27.3975 70.5844 28.392C71.4266 29.3875 71.8466 30.6964 71.8466 32.3198ZM69.4333 32.4064C69.4333 31.3687 69.2 30.5131 68.7311 29.8398C68.2189 29.1375 67.5311 28.7864 66.6689 28.7864C66.0844 28.7864 65.5533 28.982 65.0789 29.3675C64.6033 29.7564 64.2922 30.2642 64.1466 30.8931C64.0733 31.1864 64.0366 31.4264 64.0366 31.6153V33.3931C64.0366 34.1687 64.2744 34.8231 64.75 35.3575C65.2255 35.892 65.8433 36.1587 66.6033 36.1587C67.4955 36.1587 68.19 35.8142 68.6866 35.1275C69.1844 34.4398 69.4333 33.5331 69.4333 32.4064Z" fill="white"/>
<path d="M84.1099 32.3198C84.1099 34.1331 83.6199 35.5664 82.6388 36.6187C81.7622 37.5553 80.6721 38.0231 79.371 38.0231C77.9666 38.0231 76.9577 37.5187 76.3444 36.5098H76.2999V42.1264H73.931V30.6298C73.931 29.4898 73.901 28.3198 73.8433 27.1198H75.9266L76.0588 28.8098H76.1033C76.8921 27.5364 78.091 26.9009 79.701 26.9009C80.9577 26.9009 82.0077 27.3975 82.8499 28.392C83.6888 29.3875 84.1099 30.6964 84.1099 32.3198ZM81.6966 32.4064C81.6966 31.3687 81.4621 30.5131 80.9933 29.8398C80.481 29.1375 79.7955 28.7864 78.9322 28.7864C78.3466 28.7864 77.8166 28.982 77.341 29.3675C76.8655 29.7564 76.5555 30.2642 76.4099 30.8931C76.3377 31.1864 76.2999 31.4264 76.2999 31.6153V33.3931C76.2999 34.1687 76.5377 34.8231 77.011 35.3575C77.4866 35.8909 78.1044 36.1587 78.8666 36.1587C79.7588 36.1587 80.4533 35.8142 80.9499 35.1275C81.4477 34.4398 81.6966 33.5331 81.6966 32.4064Z" fill="white"/>
<path d="M97.821 33.6355C97.821 34.8933 97.3844 35.9166 96.5077 36.7066C95.5444 37.5699 94.2033 38.001 92.4799 38.001C90.8888 38.001 89.6133 37.6944 88.6477 37.0799L89.1966 35.1055C90.2366 35.7344 91.3777 36.0499 92.621 36.0499C93.5133 36.0499 94.2077 35.8477 94.7066 35.4455C95.2033 35.0433 95.451 34.5033 95.451 33.8299C95.451 33.2299 95.2466 32.7244 94.8366 32.3144C94.4288 31.9044 93.7477 31.5233 92.7966 31.171C90.2077 30.2055 88.9144 28.791 88.9144 26.931C88.9144 25.7155 89.3677 24.7188 90.2755 23.9433C91.1799 23.1666 92.3866 22.7788 93.8955 22.7788C95.241 22.7788 96.3588 23.0133 97.251 23.481L96.6588 25.4121C95.8255 24.9588 94.8833 24.7321 93.8288 24.7321C92.9955 24.7321 92.3444 24.9377 91.8777 25.3466C91.4833 25.7121 91.2855 26.1577 91.2855 26.6855C91.2855 27.2699 91.511 27.7533 91.9644 28.1333C92.3588 28.4844 93.0755 28.8644 94.1155 29.2744C95.3877 29.7866 96.3222 30.3855 96.9233 31.0721C97.5222 31.7566 97.821 32.6133 97.821 33.6355Z" fill="white"/>
<path d="M105.653 28.8978H103.042V34.0745C103.042 35.3912 103.502 36.0489 104.424 36.0489C104.848 36.0489 105.199 36.0123 105.477 35.9389L105.542 37.7378C105.076 37.9123 104.461 38 103.7 38C102.764 38 102.033 37.7145 101.506 37.1445C100.98 36.5734 100.716 35.6156 100.716 34.27V28.8956H99.16V27.1178H100.716V25.1656L103.042 24.4634V27.1178H105.653V28.8978Z" fill="white"/>
<path d="M117.435 32.3635C117.435 34.0023 116.966 35.3479 116.03 36.4001C115.049 37.4835 113.747 38.0235 112.124 38.0235C110.559 38.0235 109.314 37.5046 108.385 36.4668C107.456 35.429 106.991 34.119 106.991 32.5401C106.991 30.8879 107.469 29.5346 108.428 28.4823C109.385 27.429 110.676 26.9023 112.299 26.9023C113.864 26.9023 115.122 27.4212 116.072 28.4601C116.981 29.4679 117.435 30.769 117.435 32.3635ZM114.977 32.4401C114.977 31.4568 114.767 30.6135 114.341 29.9101C113.845 29.059 113.135 28.6346 112.215 28.6346C111.262 28.6346 110.539 29.0601 110.042 29.9101C109.617 30.6146 109.407 31.4712 109.407 32.4846C109.407 33.4679 109.617 34.3112 110.042 35.0135C110.555 35.8646 111.27 36.289 112.194 36.289C113.098 36.289 113.808 35.8557 114.32 34.9912C114.757 34.2746 114.977 33.4223 114.977 32.4401Z" fill="white"/>
<path d="M125.134 29.2031C124.9 29.1598 124.65 29.1375 124.388 29.1375C123.554 29.1375 122.91 29.452 122.457 30.082C122.062 30.6375 121.864 31.3398 121.864 32.1875V37.782H119.497L119.519 30.4775C119.519 29.2487 119.489 28.1298 119.43 27.1209H121.493L121.58 29.1609H121.645C121.895 28.4598 122.29 27.8953 122.83 27.472C123.358 27.0909 123.928 26.9009 124.542 26.9009C124.761 26.9009 124.959 26.9164 125.134 26.9442V29.2031Z" fill="white"/>
<path d="M135.729 31.9464C135.729 32.3709 135.701 32.7286 135.642 33.0209H128.536C128.563 34.0742 128.907 34.8797 129.567 35.4353C130.166 35.932 130.94 36.1809 131.891 36.1809C132.943 36.1809 133.903 36.0131 134.767 35.6764L135.138 37.3209C134.129 37.7609 132.938 37.9797 131.563 37.9797C129.91 37.9797 128.612 37.4931 127.668 36.5209C126.726 35.5486 126.253 34.2431 126.253 32.6053C126.253 30.9975 126.692 29.6586 127.571 28.5909C128.491 27.4509 129.734 26.8809 131.299 26.8809C132.836 26.8809 133.999 27.4509 134.789 28.5909C135.414 29.4964 135.729 30.6164 135.729 31.9464ZM133.47 31.332C133.486 30.6297 133.331 30.0231 133.01 29.5109C132.6 28.852 131.97 28.5231 131.122 28.5231C130.348 28.5231 129.718 28.8442 129.237 29.4886C128.842 30.0009 128.608 30.6153 128.536 31.3309L133.47 31.332Z" fill="white"/>
<path d="M54.5 13.8992C54.5 15.207 54.1078 16.1914 53.3245 16.8525C52.5989 17.4625 51.5678 17.7681 50.2323 17.7681C49.57 17.7681 49.0034 17.7392 48.5289 17.6814V10.5359C49.1478 10.4359 49.8145 10.3848 50.5345 10.3848C51.8067 10.3848 52.7656 10.6614 53.4123 11.2148C54.1367 11.8403 54.5 12.7348 54.5 13.8992ZM53.2723 13.9314C53.2723 13.0837 53.0478 12.4337 52.5989 11.9803C52.15 11.5281 51.4945 11.3014 50.6312 11.3014C50.2645 11.3014 49.9523 11.3259 49.6934 11.377V16.8092C49.8367 16.8314 50.0989 16.8414 50.48 16.8414C51.3712 16.8414 52.0589 16.5937 52.5434 16.0981C53.0278 15.6025 53.2723 14.8803 53.2723 13.9314Z" fill="white"/>
<path d="M61.01 15.0416C61.01 15.8472 60.78 16.5072 60.32 17.0249C59.8378 17.5572 59.1989 17.8227 58.4011 17.8227C57.6322 17.8227 57.02 17.5683 56.5633 17.0572C56.1078 16.5472 55.88 15.9038 55.88 15.1283C55.88 14.3172 56.1144 13.6516 56.5856 13.1349C57.0567 12.6183 57.69 12.3594 58.4878 12.3594C59.2567 12.3594 59.8744 12.6138 60.3422 13.1238C60.7867 13.6194 61.01 14.2594 61.01 15.0416ZM59.8022 15.0794C59.8022 14.596 59.6978 14.1816 59.49 13.836C59.2456 13.4183 58.8978 13.2094 58.4456 13.2094C57.9778 13.2094 57.6222 13.4183 57.3778 13.836C57.1689 14.1816 57.0656 14.6027 57.0656 15.1005C57.0656 15.5838 57.17 15.9983 57.3778 16.3438C57.63 16.7616 57.9811 16.9705 58.4344 16.9705C58.8789 16.9705 59.2278 16.7583 59.4789 16.3327C59.6944 15.9805 59.8022 15.5627 59.8022 15.0794Z" fill="white"/>
<path d="M69.7389 12.4658L68.1 17.7036H67.0334L66.3545 15.4292C66.1822 14.8614 66.0422 14.2969 65.9334 13.7369H65.9122C65.8111 14.3125 65.6711 14.8758 65.4911 15.4292L64.77 17.7036H63.6911L62.15 12.4658H63.3467L63.9389 14.9558C64.0822 15.5447 64.2 16.1058 64.2945 16.6369H64.3156C64.4022 16.1992 64.5456 15.6414 64.7478 14.9669L65.4911 12.4669H66.44L67.1522 14.9136C67.3245 15.5103 67.4645 16.0847 67.5722 16.638H67.6045C67.6834 16.0992 67.8022 15.5247 67.96 14.9136L68.5956 12.4669H69.7389V12.4658Z" fill="white"/>
<path d="M75.7756 17.7037H74.6111V14.7037C74.6111 13.7793 74.26 13.3171 73.5556 13.3171C73.21 13.3171 72.9311 13.4437 72.7144 13.6982C72.5 13.9526 72.3911 14.2526 72.3911 14.596V17.7026H71.2267V13.9626C71.2267 13.5026 71.2122 13.0037 71.1844 12.4637H72.2078L72.2622 13.2826H72.2944C72.43 13.0282 72.6322 12.8182 72.8978 12.6504C73.2133 12.4548 73.5667 12.356 73.9533 12.356C74.4422 12.356 74.8489 12.5137 75.1722 12.8304C75.5744 13.2182 75.7756 13.7971 75.7756 14.566V17.7037Z" fill="white"/>
<path d="M78.9867 17.7036H77.8234V10.0625H78.9867V17.7036Z" fill="white"/>
<path d="M85.8423 15.0416C85.8423 15.8472 85.6123 16.5072 85.1523 17.0249C84.6701 17.5572 84.0301 17.8227 83.2334 17.8227C82.4634 17.8227 81.8512 17.5683 81.3956 17.0572C80.9401 16.5472 80.7123 15.9038 80.7123 15.1283C80.7123 14.3172 80.9467 13.6516 81.4178 13.1349C81.8889 12.6183 82.5223 12.3594 83.3189 12.3594C84.0889 12.3594 84.7056 12.6138 85.1745 13.1238C85.6189 13.6194 85.8423 14.2594 85.8423 15.0416ZM84.6334 15.0794C84.6334 14.596 84.5289 14.1816 84.3212 13.836C84.0778 13.4183 83.7289 13.2094 83.2778 13.2094C82.8089 13.2094 82.4534 13.4183 82.2101 13.836C82.0012 14.1816 81.8978 14.6027 81.8978 15.1005C81.8978 15.5838 82.0023 15.9983 82.2101 16.3438C82.4623 16.7616 82.8134 16.9705 83.2667 16.9705C83.7112 16.9705 84.0589 16.7583 84.3101 16.3327C84.5267 15.9805 84.6334 15.5627 84.6334 15.0794Z" fill="white"/>
<path d="M91.4779 17.7038H90.4323L90.3456 17.1005H90.3134C89.9556 17.5816 89.4456 17.8227 88.7834 17.8227C88.289 17.8227 87.889 17.6638 87.5879 17.3483C87.3145 17.0616 87.1779 16.7049 87.1779 16.2816C87.1779 15.6416 87.4445 15.1538 87.9812 14.816C88.5167 14.4783 89.2701 14.3127 90.2401 14.3205V14.2227C90.2401 13.5327 89.8779 13.1883 89.1523 13.1883C88.6356 13.1883 88.1801 13.3183 87.7867 13.576L87.5501 12.8116C88.0367 12.5105 88.6379 12.3594 89.3467 12.3594C90.7156 12.3594 91.4023 13.0816 91.4023 14.526V16.4549C91.4023 16.9783 91.4279 17.3949 91.4779 17.7038ZM90.269 15.9038V15.096C88.9845 15.0738 88.3423 15.426 88.3423 16.1516C88.3423 16.4249 88.4156 16.6294 88.5656 16.766C88.7156 16.9027 88.9067 16.9705 89.1345 16.9705C89.3901 16.9705 89.629 16.8894 89.8467 16.7283C90.0656 16.566 90.2001 16.3605 90.2501 16.1083C90.2623 16.0516 90.269 15.9827 90.269 15.9038Z" fill="white"/>
<path d="M98.0945 17.7036H97.0611L97.0067 16.8625H96.9745C96.6445 17.5025 96.0823 17.8225 95.2923 17.8225C94.6611 17.8225 94.1356 17.5747 93.7189 17.0792C93.3023 16.5836 93.0945 15.9403 93.0945 15.1503C93.0945 14.3025 93.32 13.6158 93.7734 13.0914C94.2123 12.6025 94.75 12.3581 95.39 12.3581C96.0934 12.3581 96.5856 12.5947 96.8656 13.0692H96.8878V10.0625H98.0534V16.2925C98.0534 16.8025 98.0667 17.2725 98.0945 17.7036ZM96.8878 15.4947V14.6214C96.8878 14.4703 96.8767 14.3481 96.8556 14.2547C96.79 13.9747 96.6489 13.7392 96.4345 13.5492C96.2178 13.3592 95.9567 13.2636 95.6556 13.2636C95.2211 13.2636 94.8811 13.4358 94.6311 13.7814C94.3834 14.1269 94.2578 14.5681 94.2578 15.1069C94.2578 15.6247 94.3767 16.0447 94.6156 16.3681C94.8678 16.7125 95.2078 16.8847 95.6334 16.8847C96.0156 16.8847 96.3211 16.7414 96.5534 16.4536C96.7778 16.1881 96.8878 15.8681 96.8878 15.4947Z" fill="white"/>
<path d="M108.053 15.0416C108.053 15.8472 107.823 16.5072 107.363 17.0249C106.881 17.5572 106.243 17.8227 105.444 17.8227C104.677 17.8227 104.064 17.5683 103.607 17.0572C103.151 16.5472 102.923 15.9038 102.923 15.1283C102.923 14.3172 103.158 13.6516 103.629 13.1349C104.1 12.6183 104.733 12.3594 105.532 12.3594C106.3 12.3594 106.919 12.6138 107.386 13.1238C107.83 13.6194 108.053 14.2594 108.053 15.0416ZM106.847 15.0794C106.847 14.596 106.742 14.1816 106.534 13.836C106.289 13.4183 105.942 13.2094 105.489 13.2094C105.022 13.2094 104.667 13.4183 104.421 13.836C104.212 14.1816 104.109 14.6027 104.109 15.1005C104.109 15.5838 104.213 15.9983 104.421 16.3438C104.673 16.7616 105.024 16.9705 105.478 16.9705C105.922 16.9705 106.272 16.7583 106.523 16.3327C106.738 15.9805 106.847 15.5627 106.847 15.0794Z" fill="white"/>
<path d="M114.314 17.7037H113.151V14.7037C113.151 13.7793 112.8 13.3171 112.094 13.3171C111.749 13.3171 111.47 13.4437 111.254 13.6982C111.039 13.9526 110.931 14.2526 110.931 14.596V17.7026H109.766V13.9626C109.766 13.5026 109.752 13.0037 109.724 12.4637H110.747L110.801 13.2826H110.833C110.97 13.0282 111.172 12.8182 111.437 12.6504C111.753 12.4548 112.106 12.356 112.493 12.356C112.981 12.356 113.388 12.5137 113.711 12.8304C114.114 13.2182 114.314 13.7971 114.314 14.566V17.7037Z" fill="white"/>
<path d="M122.151 13.3383H120.869V15.8827C120.869 16.5294 121.097 16.8527 121.548 16.8527C121.757 16.8527 121.93 16.835 122.067 16.7983L122.097 17.6816C121.867 17.7683 121.565 17.8116 121.192 17.8116C120.732 17.8116 120.375 17.6716 120.116 17.3916C119.856 17.1116 119.727 16.6405 119.727 15.9794V13.3383H118.961V12.4661H119.727V11.5061L120.868 11.1616V12.465H122.15L122.151 13.3383Z" fill="white"/>
<path d="M128.316 17.7036H127.15V14.7258C127.15 13.7869 126.799 13.3169 126.096 13.3169C125.556 13.3169 125.187 13.5892 124.985 14.1336C124.95 14.2481 124.93 14.3881 124.93 14.5525V17.7025H123.767V10.0625H124.93V13.2192H124.952C125.319 12.6447 125.845 12.3581 126.526 12.3581C127.008 12.3581 127.407 12.5158 127.723 12.8325C128.118 13.2269 128.316 13.8136 128.316 14.5892V17.7036Z" fill="white"/>
<path d="M134.674 14.8369C134.674 15.0458 134.659 15.2213 134.631 15.3647H131.139C131.154 15.8825 131.321 16.2769 131.644 16.5502C131.94 16.7947 132.321 16.9169 132.788 16.9169C133.304 16.9169 133.776 16.8347 134.2 16.6691L134.382 17.478C133.886 17.6936 133.301 17.8013 132.624 17.8013C131.813 17.8013 131.174 17.5625 130.712 17.0847C130.248 16.6069 130.018 15.9658 130.018 15.1613C130.018 14.3713 130.232 13.7136 130.664 13.1891C131.116 12.6291 131.726 12.3491 132.496 12.3491C133.249 12.3491 133.821 12.6291 134.208 13.1891C134.52 13.6336 134.674 14.1836 134.674 14.8369ZM133.563 14.5358C133.572 14.1902 133.496 13.8925 133.338 13.6413C133.136 13.318 132.828 13.1558 132.411 13.1558C132.031 13.1558 131.721 13.3136 131.484 13.6302C131.291 13.8825 131.177 14.1836 131.139 14.5358H133.563Z" fill="white"/>
</g>
<defs>
<clipPath id="clip0_498_3455">
<rect width="150" height="50" fill="white"/>
</clipPath>
</defs>
</svg>
