<svg width="150" height="50" viewBox="0 0 150 50" fill="none" xmlns="http://www.w3.org/2000/svg">
<g clip-path="url(#clip0_498_3488)">
<path d="M144.442 47.2221H5.55835C2.50285 47.2221 0.00292969 44.7222 0.00292969 41.6667V8.33423C0.00292969 5.27873 2.50285 2.77881 5.55835 2.77881H144.442C147.497 2.77881 149.997 5.27873 149.997 8.33423V41.6667C149.997 44.7222 147.497 47.2221 144.442 47.2221Z" fill="#100F0D"/>
<path d="M144.442 2.77881H5.55835C2.50285 2.77881 0.00292969 5.27873 0.00292969 8.33423V41.6667C0.00292969 44.7222 2.50285 47.2221 5.55835 47.2221H144.442C147.497 47.2221 149.997 44.7222 149.997 41.6667V8.33423C149.997 5.27873 147.497 2.77881 144.442 2.77881ZM144.442 3.66723C147.015 3.66723 149.108 5.76098 149.108 8.33423V41.6667C149.108 44.24 147.015 46.3337 144.442 46.3337H5.55835C2.9851 46.3337 0.892263 44.24 0.892263 41.6667V8.33423C0.892263 5.76098 2.9851 3.66723 5.55835 3.66723H144.442Z" fill="#A2A2A1"/>
<path d="M118.817 36.1112H120.89V22.2203H118.817V36.1112ZM137.491 27.2245L135.114 33.2465H135.043L132.577 27.2245H130.343L134.043 35.6412L131.933 40.3232H134.096L139.797 27.2249L137.491 27.2245ZM125.733 34.5333C125.055 34.5333 124.107 34.1934 124.107 33.3537C124.107 32.2816 125.287 31.8706 126.305 31.8706C127.216 31.8706 127.646 32.0668 128.199 32.335C128.038 33.6218 126.93 34.5333 125.733 34.5333ZM125.984 26.9207C124.483 26.9207 122.928 27.5821 122.285 29.0474L124.125 29.8156C124.518 29.0474 125.25 28.7974 126.019 28.7974C127.091 28.7974 128.181 29.4402 128.199 30.5843V30.727C127.824 30.5126 127.019 30.1911 126.037 30.1911C124.053 30.1911 122.034 31.2808 122.034 33.3181C122.034 35.1766 123.66 36.374 125.483 36.374C126.876 36.374 127.646 35.7485 128.127 35.0156H128.199V36.0884H130.201V30.7626C130.201 28.2965 128.359 26.9207 125.984 26.9207ZM113.17 28.9154H110.221V24.1543H113.17C114.72 24.1543 115.6 25.4373 115.6 26.5348C115.6 27.6112 114.72 28.9154 113.17 28.9154ZM113.117 22.2207H108.149V36.1115H110.222V30.8491H113.117C115.415 30.8491 117.674 29.1859 117.674 26.5353C117.674 23.8852 115.415 22.2207 113.117 22.2207ZM86.0278 34.5357C84.5955 34.5357 83.3967 33.336 83.3967 31.6898C83.3967 30.0245 84.5955 28.8079 86.0278 28.8079C87.4419 28.8079 88.5517 30.0246 88.5517 31.6898C88.5517 33.336 87.4419 34.5357 86.0278 34.5357ZM88.4084 28.0021H88.3367C87.8715 27.4473 86.9761 26.9461 85.849 26.9461C83.4857 26.9461 81.32 29.0228 81.32 31.6898C81.32 34.3387 83.4857 36.3972 85.849 36.3972C86.9761 36.3972 87.8715 35.8958 88.3367 35.3234H88.4084V36.0031C88.4084 37.8116 87.4419 38.7777 85.8846 38.7777C84.6142 38.7777 83.8265 37.865 83.504 37.0954L81.6964 37.8471C82.2151 39.0996 83.593 40.6396 85.8847 40.6396C88.3195 40.6396 90.378 39.2073 90.378 35.7165V27.2324H88.4085L88.4084 28.0021ZM91.8102 36.1107H93.8857V22.2199H91.8102V36.1107ZM96.9469 31.5284C96.8935 29.7025 98.3617 28.7719 99.4173 28.7719C100.241 28.7719 100.938 29.1838 101.172 29.7741L96.9469 31.5284ZM103.391 29.9529C102.997 28.8974 101.798 26.9461 99.3457 26.9461C96.9108 26.9461 94.8883 28.8613 94.8883 31.6717C94.8883 34.3209 96.8935 36.3972 99.5779 36.3972C101.744 36.3972 102.997 35.0731 103.517 34.3031L101.905 33.2289C101.368 34.0167 100.635 34.5357 99.5779 34.5357C98.5224 34.5357 97.7702 34.0523 97.2877 33.1036L103.606 30.4903L103.391 29.9529ZM53.0499 28.3961V30.4008H57.847C57.7038 31.5285 57.3279 32.3517 56.755 32.9247C56.0567 33.6225 54.9647 34.3925 53.0498 34.3925C50.0962 34.3925 47.7873 32.0119 47.7873 29.0584C47.7873 26.1049 50.0962 23.724 53.0498 23.724C54.643 23.724 55.8062 24.3506 56.6655 25.1562L58.08 23.7417C56.8803 22.5963 55.2875 21.7192 53.0498 21.7192C49.0038 21.7192 45.6029 25.0129 45.6029 29.0584C45.6029 33.1035 49.0038 36.3972 53.0498 36.3972C55.2333 36.3972 56.8804 35.6811 58.169 34.3387C59.4937 33.0141 59.9055 31.1526 59.9055 29.6487C59.9055 29.1839 59.8694 28.7542 59.7978 28.3961H53.0499ZM65.3599 34.5357C63.9276 34.5357 62.6924 33.3542 62.6924 31.6717C62.6924 29.9712 63.9276 28.808 65.3599 28.808C66.7917 28.808 68.0268 29.9712 68.0268 31.6717C68.0268 33.3542 66.7917 34.5357 65.3599 34.5357ZM65.3599 26.9461C62.7457 26.9461 60.616 28.9329 60.616 31.6717C60.616 34.3925 62.7457 36.3972 65.3599 36.3972C67.9731 36.3972 70.1032 34.3925 70.1032 31.6717C70.1032 28.9329 67.9731 26.9461 65.3599 26.9461ZM75.7074 34.5357C74.2761 34.5357 73.0405 33.3542 73.0405 31.6717C73.0405 29.9712 74.2762 28.808 75.7074 28.808C77.1397 28.808 78.3745 29.9712 78.3745 31.6717C78.3745 33.3542 77.1397 34.5357 75.7074 34.5357ZM75.7074 26.9461C73.0942 26.9461 70.9645 28.9329 70.9645 31.6717C70.9645 34.3925 73.0942 36.3972 75.7074 36.3972C78.3216 36.3972 80.4513 34.3925 80.4513 31.6717C80.4513 28.9329 78.3216 26.9461 75.7074 26.9461Z" fill="white"/>
<path d="M23.0183 24.3605L11.1899 36.9155C11.1904 36.9181 11.1913 36.9202 11.1917 36.9229C11.5545 38.2863 12.7997 39.2901 14.2775 39.2901C14.8683 39.2901 15.4229 39.1304 15.8986 38.85L15.9364 38.8278L29.2514 31.1445L23.0183 24.3605Z" fill="#EB3131"/>
<path d="M34.9859 22.2231L34.9745 22.2153L29.2261 18.8828L22.7496 24.6458L29.2486 31.1439L34.9667 27.8446C35.9692 27.3034 36.6498 26.2465 36.6498 25.0277C36.6498 23.8177 35.9785 22.7661 34.9859 22.2231Z" fill="#F6B60B"/>
<path d="M11.1883 13.0864C11.1172 13.3486 11.0798 13.6233 11.0798 13.9085V36.0944C11.0798 36.379 11.1168 36.6546 11.1888 36.9159L23.4254 24.6817L11.1883 13.0864Z" fill="#5778C5"/>
<path d="M23.1058 25.0011L29.2285 18.8802L15.9285 11.1691C15.4451 10.8795 14.8809 10.7124 14.2771 10.7124C12.7993 10.7124 11.5524 11.7181 11.1895 13.083C11.1891 13.0843 11.1891 13.0852 11.1891 13.0864L23.1058 25.0011Z" fill="#3BAD49"/>
<path d="M52.6608 13.6464H49.4196V14.4485H51.8484C51.7824 15.1031 51.522 15.617 51.0828 15.9902C50.6436 16.3635 50.0828 16.551 49.4196 16.551C48.6922 16.551 48.0759 16.2975 47.5708 15.7941C47.0759 15.2802 46.8242 14.6448 46.8242 13.8792C46.8242 13.1137 47.0759 12.4782 47.5708 11.9644C48.0759 11.4609 48.6922 11.2092 49.4196 11.2092C49.7929 11.2092 50.1488 11.2734 50.4751 11.414C50.8015 11.5546 51.0636 11.7508 51.2685 12.0026L51.8848 11.3863C51.6053 11.0685 51.2512 10.8255 50.8118 10.6484C50.3726 10.4713 49.9143 10.3863 49.4195 10.3863C48.4491 10.3863 47.6263 10.7231 46.9543 11.395C46.2825 12.0685 45.9457 12.8984 45.9457 13.8792C45.9457 14.86 46.2824 15.6917 46.9543 16.3636C47.6262 17.0354 48.4491 17.3723 49.4195 17.3723C50.4386 17.3723 51.2511 17.0459 51.8761 16.3826C52.4264 15.8306 52.7076 15.0841 52.7076 14.1501C52.7076 13.9921 52.6886 13.8236 52.6608 13.6464ZM53.9165 10.5354V17.2229H57.8208V16.4017H54.7758V14.2802H57.5223V13.4782H54.7758V11.3584H57.8208V10.5354L53.9165 10.5354ZM63.2957 11.3584V10.5354H58.7003V11.3584H60.5683V17.2228H61.4277V11.3584H63.2957ZM67.4561 10.5354H66.5968V17.2229H67.4561V10.5354ZM73.1283 11.3584V10.5354H68.5329V11.3584H70.4008V17.2228H71.2602V11.3584H73.1283ZM81.7999 11.4053C81.1367 10.723 80.3243 10.3862 79.3538 10.3862C78.3816 10.3862 77.5692 10.723 76.9059 11.3949C76.2427 12.0581 75.9164 12.8896 75.9164 13.8791C75.9164 14.8686 76.2427 15.7003 76.9059 16.3636C77.5691 17.0353 78.3816 17.3722 79.3538 17.3722C80.3155 17.3722 81.1367 17.0353 81.7999 16.3636C82.4631 15.7004 82.7894 14.8687 82.7894 13.8791C82.7894 12.8983 82.4631 12.0684 81.7999 11.4053ZM77.5223 11.9643C78.017 11.4609 78.6247 11.2091 79.3538 11.2091C80.0812 11.2091 80.6888 11.4609 81.1749 11.9643C81.6697 12.4591 81.9127 13.1048 81.9127 13.8791C81.9127 14.6552 81.6697 15.2992 81.1749 15.794C80.6888 16.2975 80.0812 16.5509 79.3538 16.5509C78.6247 16.5509 78.017 16.2975 77.5223 15.794C77.0378 15.2888 76.7948 14.6552 76.7948 13.8791C76.7948 13.1048 77.0378 12.4695 77.5223 11.9643ZM84.8311 13.058L84.7947 11.768H84.8311L88.2303 17.2228H89.1278V10.5354H88.2685V14.4485L88.3049 15.7385H88.2685L85.0186 10.5354H83.9717V17.2228H84.8311V13.058Z" fill="white" stroke="white" stroke-width="0.222217" stroke-miterlimit="10"/>
</g>
<defs>
<clipPath id="clip0_498_3488">
<rect width="150" height="50" fill="white"/>
</clipPath>
</defs>
</svg>
