<svg width="80" height="80" viewBox="0 0 80 80" fill="none" xmlns="http://www.w3.org/2000/svg">
<path d="M27.5 29.7915C31.297 29.7915 34.375 26.7135 34.375 22.9165C34.375 19.1195 31.297 16.0415 27.5 16.0415C23.703 16.0415 20.625 19.1195 20.625 22.9165C20.625 26.7135 23.703 29.7915 27.5 29.7915Z" stroke="#18C470" stroke-width="2" stroke-linecap="round" stroke-linejoin="round"/>
<path d="M27.5 4.58325C22.6377 4.58325 17.9745 6.51479 14.5364 9.95296C11.0982 13.3911 9.16666 18.0543 9.16666 22.9166C9.16666 27.2524 10.0879 30.0895 12.6042 33.2291L27.5 50.4166L42.3958 33.2291C44.9121 30.0895 45.8333 27.2524 45.8333 22.9166C45.8333 18.0543 43.9018 13.3911 40.4636 9.95296C37.0254 6.51479 32.3623 4.58325 27.5 4.58325Z" stroke="#18C470" stroke-width="2" stroke-linecap="round" stroke-linejoin="round"/>
<path opacity="0.24" d="M5.66675 55.0305C6.05901 54.9524 6.5732 55.0359 6.96398 55.1506C7.08645 55.1862 7.02444 55.3452 7.10898 55.3769C7.27433 55.4388 7.42837 55.3608 7.59177 55.4344C7.64592 55.4596 7.57851 55.7115 7.63529 55.7322C7.94645 55.8435 8.24081 55.7793 8.55601 55.8329C10.1086 56.0971 11.6347 56.1916 13.2063 56.3064C13.7245 56.344 14.3544 56.5726 14.8897 56.4726C14.9522 56.4607 14.9149 56.2396 14.9268 56.2214C15.1133 55.9424 15.0513 56.3888 15.173 56.4481C15.6562 56.6823 16.1935 56.7026 16.6585 56.6173C16.8563 56.5803 16.658 56.1412 16.8572 56.3877C16.871 56.4043 16.8208 56.6391 16.875 56.6642C16.9981 56.7205 17.2315 56.6785 17.3269 56.6971C17.5106 56.7342 17.541 56.7318 17.7149 56.7345C17.9525 56.7402 18.2351 56.8569 18.49 56.8037C18.5445 56.7916 18.4724 56.551 18.5592 56.51C18.6461 56.4691 18.8759 56.4895 18.9533 56.5463C19.0308 56.603 18.9978 56.7922 19.0115 56.8356C19.1244 57.2015 19.3902 56.6947 19.4244 56.6821C20.048 56.4685 20.5827 56.7573 21.1681 56.7565C21.6125 56.7552 22.0876 56.6599 22.5104 56.673C23.0142 56.6895 23.4411 56.8199 23.9305 56.7975C23.9821 56.7954 23.9216 56.5124 23.9847 56.5093C24.6549 56.4763 25.3204 56.5072 25.9877 56.6982C26.0546 56.7176 25.9684 56.9661 26.0352 57.0004C26.4446 57.2045 27.0923 57.6951 27.3354 56.6133C27.6127 56.6555 27.9493 56.6992 28.1974 56.9172C28.3573 57.0576 28.202 57.3283 28.3984 57.2128C28.4427 57.187 28.3851 56.95 28.4516 56.9293C28.7314 56.8425 29.037 56.9196 29.3138 56.7971C29.3701 56.7716 29.3547 56.5592 29.3707 56.521C29.5047 56.2112 29.7279 56.7233 29.7766 56.7605C30.147 57.0379 30.4176 56.9288 30.7627 56.9355C30.8428 56.9372 30.7481 56.6519 30.8252 56.6433C31.2249 56.6024 31.6389 56.6269 32.0303 56.7535C32.1174 56.7824 32.0373 57.0254 32.0789 57.0516C32.2623 57.1643 32.303 56.7053 32.4789 56.8044C32.516 56.8247 32.4951 57.0328 32.5019 57.0556C32.6077 57.4143 32.6997 56.9061 32.727 56.8949C33.0715 56.7416 33.2917 57.2721 33.6245 57.197C33.6643 57.1875 33.5745 56.9242 33.6864 56.9136C34.432 56.8409 35.2205 56.9132 35.9586 57.1238C36.0733 57.1561 35.9914 57.3539 35.9986 57.3783C36.1163 57.7592 36.1924 57.2488 36.2299 57.2296C36.525 57.0912 36.8008 57.5192 37.0013 56.9114C38.2514 57.1223 39.4957 56.781 40.7355 57.3255C40.7512 57.3319 40.723 57.5832 40.7544 57.5947C41.1331 57.7358 41.0603 57.3452 41.3109 56.8674C41.374 56.7474 41.566 57.3243 41.583 57.3666C41.6449 57.5224 41.5807 57.8963 41.6014 57.9265C41.7729 58.1634 41.745 56.9268 41.9763 56.9264C41.9836 56.9284 41.9532 57.1561 41.9726 57.1787C42.0329 57.2498 42.0928 57.1593 42.1518 57.2377C42.2869 57.419 42.335 58.0199 42.5414 57.6701C42.5675 57.6248 42.5276 56.9233 42.7342 56.9564C42.8165 56.9702 43.181 56.9582 43.2832 57.0036C43.3852 57.0491 43.3152 57.2751 43.3224 57.2849C43.5974 57.5838 43.4931 57.7077 43.6309 58.1503C43.7686 58.5911 43.7304 57.5396 43.7865 57.4222C43.8428 57.3052 44.0443 57.5518 44.0939 57.6376C44.1434 57.7233 44.0816 57.867 44.1257 57.9155C44.4176 58.2326 44.2538 57.3936 44.35 57.2267C44.5767 56.8315 44.7533 57.6113 44.9609 57.6877C45.0171 57.7084 44.9713 57.5308 45.0213 57.5141C45.2194 57.4507 45.3385 57.694 45.5639 57.4709C45.6007 57.4346 45.7829 56.9657 45.9009 57.3098C45.9176 57.3594 45.8701 57.5537 45.9545 57.5973C46.0807 57.6626 46.3079 57.7051 46.4435 57.6401C46.5436 57.5921 46.4288 57.2719 46.5548 57.3713C46.6108 57.4157 46.507 57.6031 46.6122 57.6709C46.7169 57.7387 46.9844 57.7305 47.0862 57.724C47.1878 57.7174 47.1322 57.4745 47.1404 57.4581C47.1901 57.3644 47.3851 57.2473 47.4024 57.2475C48.2717 57.2179 49.0733 57.6273 49.9197 57.4918C49.9861 57.4815 49.9418 57.2254 49.952 57.2212C50.1794 57.1139 50.0001 57.7949 50.1589 58.0228C50.136 57.503 50.2297 57.5971 50.3899 57.5401C50.4671 57.5123 50.425 57.311 50.4321 57.2904C50.5465 56.9847 50.6263 57.3795 50.6468 57.4603C50.7226 57.7574 50.8051 57.4064 50.8567 57.605C50.9082 57.8021 50.7896 58.0943 50.9432 58.0906C50.9863 57.9045 50.8722 57.4183 50.9888 57.3395C51.4289 57.0414 52.2503 57.4229 52.6041 57.4625C52.9572 57.5021 53.0713 57.4678 53.277 57.535C53.6487 57.6566 53.5125 57.2958 53.7433 57.1307C53.9747 56.9656 53.8622 57.8532 53.8955 58.044C53.9281 58.2348 53.9638 58.0384 54.0044 58.1433C54.0449 58.2481 53.9572 58.3779 54.0525 58.4172C54.1478 58.4565 54.4083 58.1172 54.4421 57.9177C54.5135 57.495 54.3961 57.0514 54.6482 57.2073C54.6627 57.2165 54.6157 57.4499 54.6712 57.4735C55.1122 57.6532 55.5704 57.6643 56.0109 57.8232C56.0714 57.8454 56.0173 58.1051 56.0525 58.121C56.4197 58.287 56.2884 57.8492 56.4897 57.3629C56.4445 58.0101 56.5557 58.4061 56.8344 58.4099C57.0019 58.4124 56.973 58.1297 57.0814 57.9305C57.1139 57.8705 57.2324 58.0646 57.2539 57.9316C57.3247 57.4971 57.2131 57.0106 57.5004 57.2043C57.513 57.2135 57.4728 57.4514 57.5164 57.4658C57.7979 57.5601 57.8316 57.1056 58.1359 57.0505C58.3744 57.0073 58.7986 57.2845 59.0702 57.3296C59.0645 58.0572 59.321 57.8906 59.4251 57.3889C59.6014 57.4094 59.7917 57.3811 59.9621 57.4504C60.0207 57.4741 59.9822 57.6847 59.9896 57.7075C60.103 58.0646 60.1796 57.5765 60.2176 57.5574C60.63 57.3713 60.9659 57.7413 61.3595 57.3797C61.3734 57.3667 61.3961 56.8613 61.5013 57.2303C61.5081 57.2558 61.3781 57.4857 61.5632 57.5035C61.7484 57.5213 62.0974 57.7923 62.3544 57.5581C62.4166 57.5017 62.574 57.0914 62.7002 57.412C62.717 57.4555 62.6986 57.6005 62.7229 57.6811C62.8014 57.9382 62.8443 57.4273 62.9365 57.8613C63.0288 58.2953 63.2207 58.6203 63.4799 58.3209C63.4882 58.3122 63.5496 57.9073 63.6311 57.9137C63.7612 57.9242 63.946 58.0086 64.0818 58.006C64.1469 58.0046 64.1052 57.7531 64.1165 57.7485C64.554 57.6076 64.8653 57.8318 65.3339 57.9291C65.4198 57.9474 65.6667 57.6045 65.833 57.8756C66.0156 58.1723 65.828 59.4067 66.2477 59.1126C66.417 58.995 66.6313 57.429 66.9356 58.2403C67.5256 58.0393 68.0713 58.4545 68.663 58.1675C68.6896 58.1547 68.7737 57.7177 68.8363 57.7236C68.9292 57.7333 68.9801 57.9376 69.0464 57.951C69.3243 58.0126 69.5786 57.8378 69.8465 57.865C69.9482 57.8749 69.9126 58.0861 70.0339 58.0979C70.1552 58.1095 70.236 57.8313 70.4003 57.9657C70.5243 58.0681 70.6484 58.6366 70.8131 58.7029C70.8194 58.1421 70.9325 58.1536 71.1335 58.0056C71.1722 57.9769 71.1307 57.7817 71.149 57.758C71.2234 57.6574 71.2923 57.8192 71.3629 57.7097C71.3801 57.6834 71.3809 57.4919 71.395 57.4596C71.5144 57.1775 71.7112 57.6083 71.745 57.6833C71.8746 57.9682 71.9351 57.7191 72.0345 57.8313C72.1337 57.9434 71.9854 58.0837 72.1013 58.1517C72.3415 58.2925 72.6501 58.2616 72.8941 58.2704C72.9914 58.2727 72.925 58.0171 72.9389 58.0115C73.1402 57.9466 73.3438 58.2185 73.4554 57.7093C73.5949 59.026 73.5767 57.5816 73.8644 57.8452C73.8871 57.8665 73.9159 58.4891 73.8289 58.5805C73.7419 58.6719 73.61 58.4772 73.4893 58.6197C73.4607 58.6532 73.2969 59.2366 73.2746 59.272C73.0996 59.5482 73.0748 58.6177 73.0655 58.5666C72.9605 58.0151 72.7604 58.6437 72.7077 58.6871C72.4666 58.8861 72.2618 58.7553 72.0601 58.8973C71.9282 58.9891 71.9154 59.5986 71.8118 59.5799C71.4676 59.5183 71.3474 58.6681 71.023 59.4053C70.9534 59.5625 71.0225 60.2286 70.7733 59.7048C70.7577 59.6718 70.5726 59.1926 70.4657 59.4957C70.4523 59.5339 70.4527 59.7281 70.435 59.7444C70.3163 59.8499 70.2372 59.6952 70.1079 59.7693C69.9786 59.8433 69.8232 59.9538 69.6756 59.8879C69.5866 59.8485 69.4725 59.4868 69.4299 59.3983C69.3097 59.1432 69.1807 59.5614 69.1063 59.2525C69.0311 58.9421 69.178 58.4706 68.981 58.27C68.9737 58.7744 68.957 59.2921 68.9452 59.7993C68.5136 59.7815 68.0889 59.6184 67.6558 59.6407C67.6021 59.644 67.657 59.9151 67.5994 59.9256C67.3565 59.9687 67.1444 59.7754 66.8926 59.8524C66.6976 59.913 66.4839 60.2001 66.28 60.2724C66.1555 59.6953 65.853 59.8912 65.6333 59.8385C65.5563 59.8203 65.5614 59.6661 65.5067 59.6158C65.3002 59.4298 65.3969 59.9399 65.3403 60.0201C65.0974 60.3627 65.0766 59.2083 64.7903 59.2368C64.7751 59.2379 64.5896 59.8533 64.5641 59.8916C64.4018 60.1415 64.5372 59.6774 64.4356 59.6319C64.2502 59.5488 64.1213 59.4019 63.9037 59.5821C63.8403 59.6355 63.6881 60.0191 63.5649 59.7224C63.5486 59.6835 63.5576 59.4801 63.5446 59.4682C63.3084 59.2697 63.3022 59.9088 63.1673 60.1252C63.0323 60.3416 62.8238 59.9004 62.7814 59.7733C62.6704 59.4444 62.8664 59.6327 62.8725 59.6004C62.9431 59.2163 62.791 59.2824 62.6749 59.25C62.658 58.6233 62.4956 58.661 62.5544 59.2189C62.5611 59.2798 62.6515 59.2214 62.6749 59.25C62.5729 59.8648 62.3943 59.9435 62.1971 59.369C62.1048 59.0997 62.1921 58.7858 61.9117 58.9006C61.7844 58.9525 61.8336 59.3839 61.7213 59.5016C61.4647 59.77 61.1313 59.3675 60.8668 59.4309C60.7708 59.4539 60.8643 59.6901 60.7987 59.714C60.6246 59.7781 60.471 59.6008 60.2962 59.6916C60.2803 59.7002 60.319 59.9474 60.2646 59.9505C59.8524 59.9793 59.4934 59.8209 59.063 59.8165C58.855 59.8145 58.4832 59.9509 58.2678 59.9234C57.8944 59.8774 57.4351 59.5179 57.1161 59.6052C56.9081 59.6611 56.9537 59.9084 56.8646 60.0769C56.6925 60.4035 56.3881 59.8185 56.3471 59.7279C56.3458 59.7249 56.5248 59.6666 56.4293 59.5397C56.3738 59.2752 56.3491 59.7267 56.3471 59.7279C56.3201 59.6694 55.9625 59.6132 55.8915 59.6605C55.8529 59.6863 55.8745 59.9206 55.8544 59.9297C55.3762 60.1393 54.8972 60.1989 54.4122 60.0893C54.4036 60.0846 54.4165 59.8225 54.3964 59.8147C54.1156 59.6982 53.9358 60.0187 53.7043 60.2091C53.4727 60.3993 53.2891 60.3356 53.1521 59.8857C52.9773 59.9424 52.7267 59.7435 52.5825 59.6228C52.4383 59.5021 52.4181 60.0122 52.4054 60.0223C52.0096 60.3451 51.7808 60.0531 51.3702 60.0077C51.1749 59.9852 50.7877 60.0592 50.5763 60.115C50.4092 60.1599 50.3086 60.0404 50.1546 60.1168C50.1338 60.127 50.1549 60.3541 50.1485 60.3629C49.9767 60.6346 50.0593 60.0794 50.0238 59.9802C49.8952 59.6196 49.8158 59.4275 49.5958 59.5971C49.545 59.636 49.3972 60.4355 49.3047 60.4823C49.1844 60.5416 49.2298 60.255 49.1039 60.3244C49.0931 60.3301 49.0954 60.5069 49.0176 60.4991C48.6569 60.4653 48.2635 60.3624 47.8886 60.3801C47.8374 60.3818 47.9031 60.6623 47.8291 60.6694C47.4819 60.7026 47.1013 60.6923 46.7631 60.561C46.6798 60.5278 46.7321 60.3315 46.714 60.2732C46.603 59.9204 46.4457 60.433 46.4197 60.4427C45.8004 60.689 45.3264 60.2252 44.6952 60.446C44.6609 60.459 44.3964 61.0084 44.2784 60.5372C44.2703 60.5059 44.1536 60.0237 44.0504 60.3534C44.0439 60.374 44.1167 60.6222 43.9897 60.5969C43.8628 60.5717 43.6585 60.7374 43.484 60.4647C43.4287 60.3788 43.2982 59.8979 43.1334 60.2812C43.1226 60.308 42.8682 61.1748 42.7774 60.5768C42.7627 60.4783 42.7781 59.8454 42.5814 60.1699C42.5439 60.2328 42.6121 60.374 42.5131 60.4621C42.3614 60.598 42.1604 60.4285 41.9739 60.7104C41.9414 60.7603 41.803 61.1899 41.692 60.8639C41.6746 60.8128 41.7076 60.6015 41.649 60.5779C41.3701 60.4644 41.0781 60.6058 40.795 60.4596C40.6947 60.4082 40.746 60.0666 40.6415 59.9751C40.5369 59.8836 40.3263 59.7955 40.2169 59.9516C40.1075 60.1078 40.227 60.6522 40.0631 60.6958C39.3505 60.885 38.6445 60.5656 37.933 60.5189C37.8274 60.5119 37.9149 60.7067 37.7594 60.7104C37.186 60.7249 36.196 60.9076 35.6985 60.4936C35.2998 60.1621 35.8015 59.9097 35.4969 59.7748C35.3499 59.7104 35.1908 60.3433 35.1553 60.3633C34.8087 60.5657 34.5677 60.2853 34.2557 60.3713C34.1913 60.3892 34.2545 60.6457 34.1996 60.6581C34.0123 60.7025 33.8155 60.588 33.6365 60.609C33.5562 60.619 33.571 60.8149 33.4971 60.7998C33.3203 60.7659 33.164 60.6835 32.9916 60.4999C32.9759 60.4831 33.0818 60.2394 32.951 60.2303C32.7393 60.2163 32.4765 60.0352 32.233 60.2223C32.1607 60.2785 32.1579 60.7263 32.0025 60.4171C31.9699 60.3525 32.0115 59.8148 31.8306 60.2794C31.8001 60.3566 31.4961 60.9833 31.347 60.5793C31.3076 60.473 31.2072 60.033 31.1203 60.1021C31.1085 60.1132 31.1557 60.3537 31.0837 60.3772C30.8299 60.4557 30.5639 60.43 30.3032 60.5053C30.2335 60.5259 30.3372 60.7748 30.2335 60.7976C29.9481 60.8605 29.5918 60.7971 29.3127 60.7192C29.2099 60.69 29.281 60.4838 29.2735 60.4614C29.1531 60.0965 29.0819 60.589 29.042 60.6178C28.7935 60.7898 28.6043 60.5584 28.3752 60.6196C28.312 60.6359 28.3568 60.8708 28.3442 60.8917C28.2137 61.0963 28.3109 60.6745 28.2283 60.628C27.9969 60.4964 27.739 60.5152 27.5049 60.5453C27.419 60.5566 27.5156 60.829 27.4385 60.836C26.9819 60.883 26.5072 60.8569 26.0617 60.7068C25.9778 60.678 26.0305 60.4683 26.0131 60.4204C25.8925 60.0853 25.7159 60.5424 25.6753 60.5859C25.4905 60.7847 25.4187 60.5993 25.2555 60.6339C24.4583 60.8062 23.4739 60.6834 22.7214 60.6075C21.7408 60.5099 20.9798 60.3104 20.0447 60.3622C19.9852 60.3652 20.0452 60.6442 19.9939 60.6504C19.3325 60.7176 18.6813 60.6086 18.0185 60.6892C17.9641 60.6953 18.0425 60.9598 17.9552 60.9785C17.7761 61.0187 17.5493 61.0043 17.3682 60.9199C17.2799 60.8792 17.3984 60.6523 17.3095 60.6159C17.1025 60.5309 16.8807 60.512 16.6681 60.5544C16.5776 60.573 16.7141 60.8435 16.5965 60.8467C15.7955 60.8735 15.0089 60.9201 14.1994 60.5698C14.1439 60.5457 14.0952 59.996 13.9772 60.1014C13.9684 60.254 13.9688 60.4335 13.965 60.5965C12.7989 60.6844 11.6447 60.4938 10.4754 60.4643C10.4261 60.4632 10.5113 60.7544 10.4159 60.7536C9.86343 60.7493 9.32698 60.83 8.76189 60.5405C8.70582 60.5122 8.73459 59.9997 8.56936 60.0772C8.54022 60.0914 8.29137 60.1597 8.22703 60.271C8.21829 60.2878 8.26369 60.5269 8.18351 60.5339C7.71751 60.5702 7.22917 60.5156 6.76398 60.3695C6.6889 60.3454 6.76885 60.0907 6.71538 60.0714C6.33606 59.9362 5.92347 60.1298 5.56101 59.8985C5.31839 59.7428 5.40822 59.3025 5.27929 58.8691C5.26106 58.808 5.11082 58.7983 5.10305 58.5461C5.08311 57.912 5.15588 57.2177 5.12602 56.5419C5.11971 56.3963 4.91851 56.5531 5.03763 56.2013C5.04595 56.1777 5.19183 56.061 5.22776 55.9416C5.25277 55.8591 5.20769 55.6027 5.25873 55.4971C5.30977 55.3915 5.36585 55.6065 5.45046 55.4824C5.53504 55.3568 5.49785 55.065 5.66675 55.0305ZM51.9331 59.0834C51.7995 58.8384 51.7798 59.7357 51.9243 59.521C51.9312 59.5095 51.9399 59.0954 51.9331 59.0834ZM68.0913 58.9416C67.9167 58.5459 67.7972 59.1278 67.9204 59.4334C68.0435 59.7388 68.1445 59.0616 68.0913 58.9416ZM69.9017 58.6527C69.6977 58.3406 69.6656 59.613 69.8841 59.3558C69.8968 59.3413 69.9137 58.6708 69.9017 58.6527ZM5.87717 58.7457C5.87533 58.7338 5.76733 58.7222 5.76475 58.734C5.70725 59.019 5.92319 59.042 5.87717 58.7457ZM71.6983 58.3381C71.6346 58.166 71.4512 58.3647 71.5303 58.5787C71.5941 58.7509 71.7776 58.5522 71.6983 58.3381ZM44.9665 58.1257C44.9644 58.1123 44.887 58.1003 44.8886 58.1759C44.8938 58.4193 45.0016 58.3506 44.9665 58.1257ZM74.7518 58.3235C74.3006 58.2756 74.0271 57.2245 74.5184 57.3431C74.6074 57.3646 74.3267 57.6783 74.4399 57.7731C74.6471 57.9457 74.7847 57.2858 74.9961 57.6394C75.0344 57.7041 74.7775 58.3285 74.751 58.3249C74.7513 58.3244 74.7515 58.324 74.7518 58.3235ZM51.8562 58.0056C51.8535 57.9937 51.7463 57.9825 51.7437 57.9942C51.6857 58.2791 51.9016 58.3019 51.8562 58.0056ZM40.4487 57.5709C40.4428 57.5456 40.194 57.522 40.1859 57.5453C40.0562 58.0111 40.559 58.0603 40.4487 57.5709ZM59.0745 57.349C59.1915 57.0624 59.3313 57.0287 59.4246 57.3885C59.3083 57.3694 59.1914 57.3666 59.0745 57.349Z" fill="url(#paint0_linear_498_3351)"/>
<defs>
<linearGradient id="paint0_linear_498_3351" x1="5" y1="58.5" x2="75" y2="58.5" gradientUnits="userSpaceOnUse">
<stop stop-color="#15C15D"/>
<stop offset="1" stop-color="#13EC6D"/>
</linearGradient>
</defs>
</svg>
