<svg width="80" height="80" viewBox="0 0 80 80" fill="none" xmlns="http://www.w3.org/2000/svg">
<path d="M39.1707 31.4544L46.0532 38.1075C46.2741 38.3199 46.4493 38.5725 46.5689 38.8506C46.6884 39.1287 46.75 39.4269 46.75 39.728C46.75 40.0292 46.6884 40.3274 46.5689 40.6055C46.4493 40.8836 46.2741 41.1362 46.0532 41.3486C43.6331 43.6886 40.4208 45.106 37.0065 45.3404C33.5921 45.5749 30.2048 44.6107 27.4668 42.625L23.3731 39.6552C18.8414 36.3697 14.8158 32.4783 11.4171 28.0977L8.34488 24.1405C6.29064 21.4937 5.2932 18.2193 5.53576 14.9187C5.77831 11.6182 7.24457 8.51301 9.66524 6.17353C9.88502 5.96006 10.1463 5.79067 10.434 5.67509C10.7216 5.5595 11.0301 5.5 11.3417 5.5C11.6532 5.5 11.9617 5.5595 12.2494 5.67509C12.5371 5.79067 12.7984 5.96006 13.0181 6.17353L19.9007 12.8266C20.3879 13.2978 20.6617 13.9368 20.6617 14.603C20.6617 15.2692 20.3879 15.9082 19.9007 16.3793L17.2469 18.9446C17.0398 19.1428 16.9031 19.3994 16.8564 19.6775C16.8097 19.9557 16.8554 20.2409 16.987 20.4923C20.0707 26.4551 25.0723 31.29 31.2407 34.2709C31.5008 34.3981 31.7959 34.4423 32.0836 34.3972C32.3713 34.352 32.6367 34.2198 32.8418 34.0196L35.4929 31.4569C35.7343 31.2233 36.021 31.0379 36.3365 30.9115C36.652 30.7851 36.9903 30.72 37.3318 30.72C37.6734 30.72 38.0116 30.7851 38.3271 30.9115C38.6427 31.0379 38.9293 31.2233 39.1707 31.4569V31.4544Z" stroke="#18C470" stroke-width="2"/>
<path opacity="0.24" d="M0.666754 55.0305C1.05901 54.9524 1.5732 55.0359 1.96398 55.1506C2.08645 55.1862 2.02444 55.3452 2.10898 55.3769C2.27433 55.4388 2.42837 55.3608 2.59177 55.4344C2.64592 55.4596 2.57851 55.7115 2.63529 55.7322C2.94645 55.8435 3.24081 55.7793 3.55601 55.8329C5.10859 56.0971 6.63475 56.1916 8.20633 56.3064C8.72452 56.344 9.35444 56.5726 9.88968 56.4726C9.95216 56.4607 9.91491 56.2396 9.9268 56.2214C10.1133 55.9424 10.0513 56.3888 10.173 56.4481C10.6562 56.6823 11.1935 56.7026 11.6585 56.6173C11.8563 56.5803 11.658 56.1412 11.8572 56.3877C11.871 56.4043 11.8208 56.6391 11.875 56.6642C11.9981 56.7205 12.2315 56.6785 12.3269 56.6971C12.5106 56.7342 12.541 56.7318 12.7149 56.7345C12.9525 56.7402 13.2351 56.8569 13.49 56.8037C13.5445 56.7916 13.4724 56.551 13.5592 56.51C13.6461 56.4691 13.8759 56.4895 13.9533 56.5463C14.0308 56.603 13.9978 56.7922 14.0115 56.8356C14.1244 57.2015 14.3902 56.6947 14.4244 56.6821C15.048 56.4685 15.5827 56.7573 16.1681 56.7565C16.6125 56.7552 17.0876 56.6599 17.5104 56.673C18.0142 56.6895 18.4411 56.8199 18.9305 56.7975C18.9821 56.7954 18.9216 56.5124 18.9847 56.5093C19.6549 56.4763 20.3204 56.5072 20.9877 56.6982C21.0546 56.7176 20.9684 56.9661 21.0352 57.0004C21.4446 57.2045 22.0923 57.6951 22.3354 56.6133C22.6127 56.6555 22.9493 56.6992 23.1974 56.9172C23.3573 57.0576 23.202 57.3283 23.3984 57.2128C23.4427 57.187 23.3851 56.95 23.4516 56.9293C23.7314 56.8425 24.037 56.9196 24.3138 56.7971C24.3701 56.7716 24.3547 56.5592 24.3707 56.521C24.5047 56.2112 24.7279 56.7233 24.7766 56.7605C25.147 57.0379 25.4176 56.9288 25.7627 56.9355C25.8428 56.9372 25.7481 56.6519 25.8252 56.6433C26.2249 56.6024 26.6389 56.6269 27.0303 56.7535C27.1173 56.7824 27.0373 57.0254 27.0789 57.0516C27.2623 57.1643 27.303 56.7053 27.4789 56.8044C27.516 56.8247 27.4951 57.0328 27.5019 57.0556C27.6077 57.4143 27.6997 56.9061 27.727 56.8949C28.0715 56.7416 28.2917 57.2721 28.6245 57.197C28.6643 57.1875 28.5745 56.9242 28.6864 56.9136C29.432 56.8409 30.2205 56.9132 30.9586 57.1238C31.0733 57.1561 30.9914 57.3539 30.9986 57.3783C31.1163 57.7592 31.1924 57.2488 31.2299 57.2296C31.525 57.0912 31.8008 57.5192 32.0013 56.9114C33.2514 57.1223 34.4957 56.781 35.7355 57.3255C35.7512 57.3319 35.723 57.5832 35.7544 57.5947C36.1331 57.7358 36.0603 57.3452 36.3109 56.8674C36.374 56.7474 36.566 57.3243 36.583 57.3666C36.6449 57.5224 36.5807 57.8963 36.6014 57.9265C36.7729 58.1634 36.745 56.9268 36.9763 56.9264C36.9836 56.9284 36.9532 57.1561 36.9726 57.1787C37.0329 57.2498 37.0928 57.1593 37.1518 57.2377C37.2869 57.419 37.335 58.0199 37.5414 57.6701C37.5675 57.6248 37.5276 56.9233 37.7342 56.9564C37.8165 56.9702 38.181 56.9582 38.2832 57.0036C38.3852 57.0491 38.3152 57.2751 38.3224 57.2849C38.5974 57.5838 38.4931 57.7077 38.6309 58.1503C38.7686 58.5911 38.7304 57.5396 38.7865 57.4222C38.8428 57.3052 39.0443 57.5518 39.0939 57.6376C39.1434 57.7233 39.0816 57.867 39.1257 57.9155C39.4176 58.2326 39.2538 57.3936 39.35 57.2267C39.5767 56.8315 39.7533 57.6113 39.9609 57.6877C40.0171 57.7084 39.9713 57.5308 40.0213 57.5141C40.2194 57.4507 40.3385 57.694 40.5639 57.4709C40.6007 57.4346 40.7829 56.9657 40.9009 57.3098C40.9176 57.3594 40.8701 57.5537 40.9545 57.5973C41.0807 57.6626 41.3079 57.7051 41.4435 57.6401C41.5436 57.5921 41.4288 57.2719 41.5548 57.3713C41.6108 57.4157 41.507 57.6031 41.6122 57.6709C41.7169 57.7387 41.9844 57.7305 42.0862 57.724C42.1878 57.7174 42.1322 57.4745 42.1404 57.4581C42.1901 57.3644 42.3851 57.2473 42.4024 57.2475C43.2717 57.2179 44.0733 57.6273 44.9197 57.4918C44.9861 57.4815 44.9418 57.2254 44.952 57.2212C45.1794 57.1139 45.0001 57.7949 45.1589 58.0228C45.136 57.503 45.2297 57.5971 45.3899 57.5401C45.4671 57.5123 45.425 57.311 45.4321 57.2904C45.5465 56.9847 45.6263 57.3795 45.6468 57.4603C45.7226 57.7574 45.8051 57.4064 45.8567 57.605C45.9082 57.8021 45.7896 58.0943 45.9432 58.0906C45.9863 57.9045 45.8722 57.4183 45.9888 57.3395C46.4289 57.0414 47.2503 57.4229 47.6041 57.4625C47.9572 57.5021 48.0713 57.4678 48.277 57.535C48.6487 57.6566 48.5125 57.2958 48.7433 57.1307C48.9747 56.9656 48.8622 57.8532 48.8955 58.044C48.9281 58.2348 48.9638 58.0384 49.0044 58.1433C49.0449 58.2481 48.9572 58.3779 49.0525 58.4172C49.1478 58.4565 49.4083 58.1172 49.4421 57.9177C49.5135 57.495 49.3961 57.0514 49.6482 57.2073C49.6627 57.2165 49.6157 57.4499 49.6712 57.4735C50.1122 57.6532 50.5704 57.6643 51.0109 57.8232C51.0714 57.8454 51.0173 58.1051 51.0525 58.121C51.4197 58.287 51.2884 57.8492 51.4897 57.3629C51.4445 58.0101 51.5557 58.4061 51.8344 58.4099C52.0019 58.4124 51.973 58.1297 52.0814 57.9305C52.1139 57.8705 52.2324 58.0646 52.2539 57.9316C52.3247 57.4971 52.2131 57.0106 52.5004 57.2043C52.513 57.2135 52.4728 57.4514 52.5164 57.4658C52.7979 57.5601 52.8316 57.1056 53.1359 57.0505C53.3744 57.0073 53.7986 57.2845 54.0702 57.3296C54.0645 58.0572 54.321 57.8906 54.4251 57.3889C54.6014 57.4094 54.7917 57.3811 54.9621 57.4504C55.0207 57.4741 54.9822 57.6847 54.9896 57.7075C55.103 58.0646 55.1796 57.5765 55.2176 57.5574C55.63 57.3713 55.9659 57.7413 56.3595 57.3797C56.3734 57.3667 56.3961 56.8613 56.5013 57.2303C56.5081 57.2558 56.3781 57.4857 56.5632 57.5035C56.7484 57.5213 57.0974 57.7923 57.3544 57.5581C57.4166 57.5017 57.574 57.0914 57.7002 57.412C57.717 57.4555 57.6986 57.6005 57.7229 57.6811C57.8014 57.9382 57.8443 57.4273 57.9365 57.8613C58.0288 58.2953 58.2207 58.6203 58.4799 58.3209C58.4882 58.3122 58.5496 57.9073 58.6311 57.9137C58.7612 57.9242 58.946 58.0086 59.0818 58.006C59.1469 58.0046 59.1052 57.7531 59.1165 57.7485C59.554 57.6076 59.8653 57.8318 60.3339 57.9291C60.4198 57.9474 60.6667 57.6045 60.833 57.8756C61.0156 58.1723 60.828 59.4067 61.2477 59.1126C61.417 58.995 61.6313 57.429 61.9356 58.2403C62.5256 58.0393 63.0713 58.4545 63.663 58.1675C63.6896 58.1547 63.7737 57.7177 63.8363 57.7236C63.9292 57.7333 63.9801 57.9376 64.0464 57.951C64.3243 58.0126 64.5786 57.8378 64.8465 57.865C64.9482 57.8749 64.9126 58.0861 65.0339 58.0979C65.1552 58.1095 65.236 57.8313 65.4003 57.9657C65.5243 58.0681 65.6484 58.6366 65.8131 58.7029C65.8194 58.1421 65.9325 58.1536 66.1335 58.0056C66.1722 57.9769 66.1307 57.7817 66.149 57.758C66.2234 57.6574 66.2923 57.8192 66.3629 57.7097C66.3801 57.6834 66.3809 57.4919 66.395 57.4596C66.5144 57.1775 66.7112 57.6083 66.745 57.6833C66.8746 57.9682 66.9351 57.7191 67.0345 57.8313C67.1337 57.9434 66.9854 58.0837 67.1013 58.1517C67.3415 58.2925 67.6501 58.2616 67.8941 58.2704C67.9914 58.2727 67.925 58.0171 67.9389 58.0115C68.1402 57.9466 68.3438 58.2185 68.4554 57.7093C68.5949 59.026 68.5767 57.5816 68.8644 57.8452C68.8871 57.8665 68.9159 58.4891 68.8289 58.5805C68.7419 58.6719 68.61 58.4772 68.4893 58.6197C68.4607 58.6532 68.2969 59.2366 68.2746 59.272C68.0996 59.5482 68.0748 58.6177 68.0655 58.5666C67.9605 58.0151 67.7604 58.6437 67.7077 58.6871C67.4666 58.8861 67.2618 58.7553 67.0601 58.8973C66.9282 58.9891 66.9154 59.5986 66.8118 59.5799C66.4676 59.5183 66.3474 58.6681 66.023 59.4053C65.9534 59.5625 66.0225 60.2286 65.7733 59.7048C65.7577 59.6718 65.5726 59.1926 65.4657 59.4957C65.4523 59.5339 65.4527 59.7281 65.435 59.7444C65.3163 59.8499 65.2372 59.6952 65.1079 59.7693C64.9786 59.8433 64.8232 59.9538 64.6756 59.8879C64.5866 59.8485 64.4725 59.4868 64.4299 59.3983C64.3097 59.1432 64.1807 59.5614 64.1063 59.2525C64.0311 58.9421 64.178 58.4706 63.981 58.27C63.9737 58.7744 63.957 59.2921 63.9452 59.7993C63.5136 59.7815 63.0889 59.6184 62.6558 59.6407C62.6021 59.644 62.657 59.9151 62.5994 59.9256C62.3565 59.9687 62.1444 59.7754 61.8926 59.8524C61.6976 59.913 61.4839 60.2001 61.28 60.2724C61.1555 59.6953 60.853 59.8912 60.6333 59.8385C60.5563 59.8203 60.5614 59.6661 60.5067 59.6158C60.3002 59.4298 60.3969 59.9399 60.3403 60.0201C60.0974 60.3627 60.0766 59.2083 59.7903 59.2368C59.7751 59.2379 59.5896 59.8533 59.5641 59.8916C59.4018 60.1415 59.5372 59.6774 59.4356 59.6319C59.2502 59.5488 59.1213 59.4019 58.9037 59.5821C58.8403 59.6355 58.6881 60.0191 58.5649 59.7224C58.5486 59.6835 58.5576 59.4801 58.5446 59.4682C58.3084 59.2697 58.3022 59.9088 58.1673 60.1252C58.0323 60.3416 57.8238 59.9004 57.7814 59.7733C57.6704 59.4444 57.8664 59.6327 57.8725 59.6004C57.9431 59.2163 57.791 59.2824 57.6749 59.25C57.658 58.6233 57.4956 58.661 57.5544 59.2189C57.5611 59.2798 57.6515 59.2214 57.6749 59.25C57.5729 59.8648 57.3943 59.9435 57.1971 59.369C57.1048 59.0997 57.1921 58.7858 56.9117 58.9006C56.7844 58.9525 56.8336 59.3839 56.7213 59.5016C56.4647 59.77 56.1313 59.3675 55.8668 59.4309C55.7708 59.4539 55.8643 59.6901 55.7987 59.714C55.6246 59.7781 55.471 59.6008 55.2962 59.6916C55.2803 59.7002 55.319 59.9474 55.2646 59.9505C54.8524 59.9793 54.4934 59.8209 54.063 59.8165C53.855 59.8145 53.4832 59.9509 53.2678 59.9234C52.8944 59.8774 52.4351 59.5179 52.1161 59.6052C51.9081 59.6611 51.9537 59.9084 51.8646 60.0769C51.6925 60.4035 51.3881 59.8185 51.3471 59.7279C51.3458 59.7249 51.5248 59.6666 51.4293 59.5397C51.3738 59.2752 51.3491 59.7267 51.3471 59.7279C51.3201 59.6694 50.9625 59.6132 50.8915 59.6605C50.8529 59.6863 50.8745 59.9206 50.8544 59.9297C50.3762 60.1393 49.8972 60.1989 49.4122 60.0893C49.4036 60.0846 49.4165 59.8225 49.3964 59.8147C49.1156 59.6982 48.9358 60.0187 48.7043 60.2091C48.4727 60.3993 48.2891 60.3356 48.1521 59.8857C47.9773 59.9424 47.7267 59.7435 47.5825 59.6228C47.4383 59.5021 47.4181 60.0122 47.4054 60.0223C47.0096 60.3451 46.7808 60.0531 46.3702 60.0077C46.1749 59.9852 45.7877 60.0592 45.5763 60.115C45.4092 60.1599 45.3086 60.0404 45.1546 60.1168C45.1338 60.127 45.1549 60.3541 45.1485 60.3629C44.9767 60.6346 45.0593 60.0794 45.0238 59.9802C44.8952 59.6196 44.8158 59.4275 44.5958 59.5971C44.545 59.636 44.3972 60.4355 44.3047 60.4823C44.1844 60.5416 44.2298 60.255 44.1039 60.3244C44.0931 60.3301 44.0954 60.5069 44.0176 60.4991C43.6569 60.4653 43.2635 60.3624 42.8886 60.3801C42.8374 60.3818 42.9031 60.6623 42.8291 60.6694C42.4819 60.7026 42.1013 60.6923 41.7631 60.561C41.6798 60.5278 41.7321 60.3315 41.714 60.2732C41.603 59.9204 41.4457 60.433 41.4197 60.4427C40.8004 60.689 40.3264 60.2252 39.6952 60.446C39.6609 60.459 39.3964 61.0084 39.2784 60.5372C39.2703 60.5059 39.1536 60.0237 39.0504 60.3534C39.0439 60.374 39.1167 60.6222 38.9897 60.5969C38.8628 60.5717 38.6585 60.7374 38.484 60.4647C38.4287 60.3788 38.2982 59.8979 38.1334 60.2812C38.1226 60.308 37.8682 61.1748 37.7774 60.5768C37.7627 60.4783 37.7781 59.8454 37.5814 60.1699C37.5439 60.2328 37.6121 60.374 37.5131 60.4621C37.3614 60.598 37.1604 60.4285 36.9739 60.7104C36.9414 60.7603 36.803 61.1899 36.692 60.8639C36.6746 60.8128 36.7076 60.6015 36.649 60.5779C36.3701 60.4644 36.0781 60.6058 35.795 60.4596C35.6947 60.4082 35.746 60.0666 35.6415 59.9751C35.5369 59.8836 35.3263 59.7955 35.2169 59.9516C35.1075 60.1078 35.227 60.6522 35.0631 60.6958C34.3505 60.885 33.6445 60.5656 32.933 60.5189C32.8274 60.5119 32.9149 60.7067 32.7594 60.7104C32.186 60.7249 31.196 60.9076 30.6985 60.4936C30.2998 60.1621 30.8015 59.9097 30.4969 59.7748C30.3499 59.7104 30.1908 60.3433 30.1553 60.3633C29.8087 60.5657 29.5677 60.2853 29.2557 60.3713C29.1913 60.3892 29.2545 60.6457 29.1996 60.6581C29.0123 60.7025 28.8155 60.588 28.6365 60.609C28.5562 60.619 28.571 60.8149 28.4971 60.7998C28.3203 60.7659 28.164 60.6835 27.9916 60.4999C27.9759 60.4831 28.0818 60.2394 27.951 60.2303C27.7393 60.2163 27.4765 60.0352 27.233 60.2223C27.1607 60.2785 27.1579 60.7263 27.0025 60.4171C26.9699 60.3525 27.0115 59.8148 26.8306 60.2794C26.8001 60.3566 26.4961 60.9833 26.347 60.5793C26.3076 60.473 26.2072 60.033 26.1203 60.1021C26.1085 60.1132 26.1557 60.3537 26.0837 60.3772C25.8299 60.4557 25.5639 60.43 25.3031 60.5053C25.2335 60.5259 25.3372 60.7748 25.2335 60.7976C24.9481 60.8605 24.5918 60.7971 24.3127 60.7192C24.2099 60.69 24.281 60.4838 24.2735 60.4614C24.1531 60.0965 24.0819 60.589 24.042 60.6178C23.7935 60.7898 23.6043 60.5584 23.3752 60.6196C23.312 60.6359 23.3568 60.8708 23.3442 60.8917C23.2137 61.0963 23.3109 60.6745 23.2283 60.628C22.9969 60.4964 22.739 60.5152 22.5049 60.5453C22.419 60.5566 22.5156 60.829 22.4385 60.836C21.9819 60.883 21.5072 60.8569 21.0617 60.7068C20.9778 60.678 21.0305 60.4683 21.0131 60.4204C20.8925 60.0853 20.7159 60.5424 20.6753 60.5859C20.4905 60.7847 20.4187 60.5993 20.2555 60.6339C19.4583 60.8062 18.4739 60.6834 17.7214 60.6075C16.7408 60.5099 15.9798 60.3104 15.0447 60.3622C14.9852 60.3652 15.0452 60.6442 14.9939 60.6504C14.3325 60.7176 13.6813 60.6086 13.0185 60.6892C12.9641 60.6953 13.0425 60.9598 12.9552 60.9785C12.7761 61.0187 12.5493 61.0043 12.3682 60.9199C12.2799 60.8792 12.3984 60.6523 12.3095 60.6159C12.1025 60.5309 11.8807 60.512 11.6681 60.5544C11.5776 60.573 11.7141 60.8435 11.5965 60.8467C10.7955 60.8735 10.0089 60.9201 9.19941 60.5698C9.14392 60.5457 9.09523 59.996 8.97724 60.1014C8.96835 60.254 8.96884 60.4335 8.96496 60.5965C7.7989 60.6844 6.64475 60.4938 5.47542 60.4643C5.42612 60.4632 5.51132 60.7544 5.41587 60.7536C4.86343 60.7493 4.32698 60.83 3.76189 60.5405C3.70582 60.5122 3.73459 59.9997 3.56936 60.0772C3.54022 60.0914 3.29137 60.1597 3.22703 60.271C3.21829 60.2878 3.26369 60.5269 3.18351 60.5339C2.71751 60.5702 2.22917 60.5156 1.76398 60.3695C1.6889 60.3454 1.76885 60.0907 1.71538 60.0714C1.33606 59.9362 0.923468 60.1298 0.56101 59.8985C0.318394 59.7428 0.408217 59.3025 0.279294 58.8691C0.261059 58.808 0.110824 58.7983 0.103055 58.5461C0.0831091 57.912 0.155878 57.2177 0.126019 56.5419C0.119711 56.3963 -0.081493 56.5531 0.0376326 56.2013C0.0459548 56.1777 0.191829 56.061 0.227758 55.9416C0.252772 55.8591 0.207695 55.6027 0.258733 55.4971C0.309767 55.3915 0.365846 55.6065 0.45046 55.4824C0.535036 55.3568 0.497847 55.065 0.666754 55.0305ZM46.9331 59.0834C46.7995 58.8384 46.7798 59.7357 46.9243 59.521C46.9312 59.5095 46.9399 59.0954 46.9331 59.0834ZM63.0913 58.9416C62.9167 58.5459 62.7972 59.1278 62.9204 59.4334C63.0435 59.7388 63.1445 59.0616 63.0913 58.9416ZM64.9017 58.6527C64.6977 58.3406 64.6656 59.613 64.8841 59.3558C64.8968 59.3413 64.9137 58.6708 64.9017 58.6527ZM0.877173 58.7457C0.875329 58.7338 0.767334 58.7222 0.764753 58.734C0.707248 59.019 0.923194 59.042 0.877173 58.7457ZM66.6983 58.3381C66.6346 58.166 66.4512 58.3647 66.5303 58.5787C66.5941 58.7509 66.7776 58.5522 66.6983 58.3381ZM39.9665 58.1257C39.9644 58.1123 39.887 58.1003 39.8886 58.1759C39.8938 58.4193 40.0016 58.3506 39.9665 58.1257ZM69.7518 58.3235C69.3006 58.2756 69.0271 57.2245 69.5184 57.3431C69.6074 57.3646 69.3267 57.6783 69.4399 57.7731C69.6471 57.9457 69.7847 57.2858 69.9961 57.6394C70.0344 57.7041 69.7775 58.3285 69.751 58.3249C69.7513 58.3244 69.7515 58.324 69.7518 58.3235ZM46.8562 58.0056C46.8535 57.9937 46.7463 57.9825 46.7437 57.9942C46.6857 58.2791 46.9016 58.3019 46.8562 58.0056ZM35.4487 57.5709C35.4428 57.5456 35.194 57.522 35.1859 57.5453C35.0562 58.0111 35.559 58.0603 35.4487 57.5709ZM54.0745 57.349C54.1915 57.0624 54.3313 57.0287 54.4246 57.3885C54.3083 57.3694 54.1914 57.3666 54.0745 57.349Z" fill="url(#paint0_linear_498_3365)"/>
<defs>
<linearGradient id="paint0_linear_498_3365" x1="0" y1="58.5" x2="70" y2="58.5" gradientUnits="userSpaceOnUse">
<stop stop-color="#15C15D"/>
<stop offset="1" stop-color="#13EC6D"/>
</linearGradient>
</defs>
</svg>
