<svg width="468" height="6" viewBox="0 0 468 6" fill="none" xmlns="http://www.w3.org/2000/svg">
<path d="M4.45773 0.0305095C7.08027 -0.0476489 10.518 0.0359211 13.1306 0.150626C13.9494 0.186202 13.5348 0.345226 14.1 0.376944C15.2055 0.438775 16.2354 0.360783 17.3278 0.434439C17.6899 0.459627 17.2392 0.711522 17.6188 0.732167C19.6991 0.84349 21.6671 0.77933 23.7745 0.832875C34.1546 1.09706 44.358 1.19161 54.8652 1.30638C58.3296 1.34401 62.5411 1.57262 66.1196 1.47264C66.5373 1.46075 66.2883 1.23965 66.3677 1.22142C67.6143 0.942449 67.1998 1.3888 68.0138 1.44811C71.2442 1.68226 74.8364 1.70263 77.9453 1.6173C79.2679 1.58035 77.9418 1.14119 79.2735 1.38768C79.366 1.40434 79.0304 1.63913 79.3931 1.66417C80.2157 1.72049 81.7763 1.67853 82.4138 1.69713C83.6425 1.73417 83.8458 1.73181 85.0079 1.73448C86.5965 1.74018 88.486 1.8569 90.1905 1.8037C90.5544 1.79164 90.0727 1.55096 90.6529 1.51C91.2337 1.46911 92.77 1.48951 93.288 1.54625C93.8061 1.60302 93.5855 1.7922 93.6772 1.83556C94.4314 2.20155 96.2087 1.69465 96.4372 1.68212C100.606 1.46852 104.182 1.75728 108.095 1.75646C111.066 1.75522 114.243 1.65989 117.07 1.67296C120.438 1.68947 123.292 1.81989 126.564 1.79747C126.909 1.79538 126.505 1.51239 126.926 1.50926C131.407 1.47633 135.856 1.50718 140.318 1.69823C140.765 1.71764 140.188 1.9661 140.635 2.00035C143.372 2.20455 147.703 2.69507 149.328 1.61327C151.182 1.65551 153.432 1.69916 155.091 1.91722C156.16 2.05757 155.122 2.32825 156.435 2.21275C156.731 2.18702 156.346 1.94997 156.79 1.92931C158.661 1.84253 160.705 1.91958 162.555 1.79711C162.932 1.77164 162.829 1.55923 162.935 1.52098C163.832 1.21122 165.324 1.72328 165.649 1.76048C168.126 2.03795 169.935 1.92876 172.242 1.93553C172.778 1.93722 172.145 1.65192 172.66 1.6433C175.332 1.60241 178.1 1.62693 180.717 1.75353C181.299 1.78237 180.764 2.0254 181.042 2.05162C182.268 2.16427 182.54 1.70525 183.716 1.80443C183.964 1.82475 183.824 2.0328 183.87 2.05565C184.577 2.41433 185.193 1.9061 185.375 1.89488C187.678 1.74157 189.15 2.27213 191.375 2.19701C191.641 2.18748 191.041 1.92424 191.789 1.91356C196.774 1.84089 202.046 1.9132 206.98 2.12376C207.747 2.15615 207.2 2.3539 207.248 2.37828C208.035 2.75918 208.544 2.24882 208.794 2.2296C210.767 2.09124 212.611 2.51924 213.952 1.91136C222.309 2.12232 230.629 1.78096 238.917 2.32555C239.022 2.33185 238.834 2.58321 239.044 2.59471C241.575 2.73584 241.089 2.34519 242.764 1.86742C243.186 1.74745 244.47 2.32428 244.584 2.36656C244.997 2.52237 244.568 2.89632 244.707 2.9265C245.853 3.16345 245.666 1.92678 247.213 1.92638C247.262 1.92844 247.058 2.15606 247.188 2.1787C247.592 2.24975 247.991 2.1593 248.386 2.23766C249.289 2.41896 249.611 3.01988 250.991 2.67015C251.165 2.62476 250.899 1.92327 252.28 1.95641C252.83 1.97021 255.267 1.95819 255.95 2.00365C256.633 2.04905 256.164 2.27511 256.213 2.2849C258.051 2.58382 257.354 2.7077 258.275 3.15025C259.196 3.59113 258.94 2.53959 259.316 2.42223C259.692 2.30519 261.039 2.55182 261.371 2.63756C261.702 2.72333 261.289 2.86697 261.583 2.91551C263.535 3.23264 262.44 2.39357 263.083 2.22667C264.599 1.83149 265.779 2.61131 267.167 2.68773C267.543 2.70836 267.236 2.53075 267.571 2.51414C268.895 2.45071 269.692 2.69404 271.198 2.47093C271.445 2.43457 272.663 1.96572 273.452 2.3098C273.563 2.35941 273.246 2.55374 273.81 2.59727C274.654 2.6626 276.173 2.70508 277.079 2.64012C277.748 2.59206 276.981 2.27185 277.824 2.37132C278.198 2.41574 277.504 2.60306 278.207 2.67088C278.907 2.73868 280.696 2.73045 281.376 2.72398C282.056 2.71737 281.684 2.47448 281.739 2.45811C282.071 2.36438 283.375 2.24725 283.49 2.24754C289.302 2.21789 294.661 2.62732 300.32 2.49181C300.764 2.48152 300.468 2.22539 300.536 2.22118C302.056 2.11386 300.858 2.79487 301.92 3.02281C301.766 2.50304 302.393 2.59715 303.464 2.54015C303.98 2.51225 303.699 2.31099 303.746 2.29039C304.511 1.9847 305.044 2.37954 305.181 2.46031C305.688 2.75743 306.24 2.40636 306.585 2.60496C306.929 2.80208 306.136 3.0943 307.163 3.09056C307.451 2.9045 306.689 2.41827 307.468 2.33946C310.41 2.04138 315.902 2.42288 318.267 2.46251C320.628 2.5021 321.391 2.46777 322.766 2.53502C325.251 2.6566 324.341 2.29585 325.883 2.13072C327.431 1.96562 326.679 2.85324 326.901 3.04405C327.119 3.23478 327.358 3.03844 327.629 3.14329C327.9 3.24812 327.314 3.37786 327.951 3.41722C328.588 3.45654 330.33 3.11722 330.556 2.91771C331.033 2.49501 330.248 2.05138 331.934 2.20726C332.031 2.21651 331.716 2.44991 332.087 2.47349C335.036 2.65317 338.099 2.66431 341.044 2.82323C341.449 2.84544 341.087 3.10509 341.323 3.12095C343.777 3.28703 342.9 2.84923 344.245 2.3629C343.943 3.01011 344.687 3.40607 346.55 3.40989C347.67 3.41242 347.477 3.12975 348.201 2.93052C348.419 2.87047 349.211 3.06456 349.355 2.93162C349.828 2.49708 349.082 2.01063 351.002 2.20433C351.087 2.21354 350.818 2.4514 351.109 2.4658C352.992 2.56009 353.217 2.10557 355.251 2.05052C356.846 2.00733 359.682 2.2845 361.498 2.32957C361.46 3.05722 363.175 2.8906 363.871 2.3889C365.049 2.40944 366.322 2.38108 367.461 2.45042C367.853 2.47407 367.595 2.68474 367.645 2.7075C368.403 3.06459 368.915 2.57649 369.169 2.55736C371.926 2.37134 374.172 2.74128 376.803 2.37975C376.897 2.36672 377.048 1.86128 377.751 2.23033C377.797 2.25577 376.928 2.48574 378.165 2.50352C379.403 2.52135 381.737 2.7923 383.455 2.55809C383.871 2.5017 384.923 2.09138 385.767 2.41197C385.88 2.45551 385.757 2.60047 385.919 2.68114C386.444 2.93817 386.73 2.42729 387.347 2.86131C387.964 3.29531 389.247 3.62035 390.98 3.3209C391.035 3.3122 391.446 2.90728 391.991 2.91368C392.861 2.92425 394.096 3.0086 395.004 3.00596C395.439 3.00456 395.161 2.75312 395.236 2.74852C398.161 2.60762 400.242 2.83178 403.375 2.92906C403.95 2.94739 405.6 2.60452 406.712 2.87559C407.933 3.17234 406.678 4.40674 409.485 4.11265C410.616 3.99502 412.05 2.42896 414.084 3.24034C418.028 3.03928 421.677 3.45454 425.633 3.16746C425.81 3.15474 426.373 2.71767 426.791 2.72362C427.412 2.73329 427.753 2.93758 428.196 2.95103C430.054 3.01257 431.754 2.83779 433.545 2.86497C434.225 2.87485 433.987 3.08608 434.798 3.09788C435.609 3.10949 436.149 2.83135 437.248 2.96568C438.077 3.06808 438.906 3.63659 440.008 3.70286C440.05 3.14208 440.806 3.15363 442.15 3.0056C442.408 2.97688 442.131 2.78169 442.253 2.75804C442.751 2.65744 443.211 2.81921 443.684 2.7097C443.798 2.6834 443.804 2.49189 443.898 2.45958C444.696 2.17754 446.012 2.60833 446.238 2.68333C447.104 2.96819 447.509 2.71911 448.173 2.83128C448.837 2.94344 447.845 3.08365 448.62 3.15172C450.226 3.2925 452.289 3.26157 453.92 3.27037C454.571 3.2727 454.127 3.01706 454.22 3.01146C455.566 2.94662 456.927 3.21854 457.673 2.70933C458.606 4.02596 458.484 2.58163 460.408 2.8452C460.56 2.86652 460.752 3.48914 460.171 3.58055C459.589 3.67187 458.707 3.47724 457.9 3.61973C457.709 3.65317 456.614 4.23661 456.464 4.27195C455.294 4.54816 455.128 3.61773 455.066 3.56663C454.364 3.01514 453.026 3.64368 452.674 3.68711C451.062 3.88612 449.693 3.75527 448.345 3.89732C447.463 3.98913 447.377 4.59859 446.685 4.57993C444.383 4.51827 443.58 3.66807 441.411 4.40525C440.946 4.56248 441.408 5.22861 439.742 4.70481C439.637 4.67179 438.4 4.19261 437.685 4.49571C437.595 4.53392 437.598 4.72805 437.48 4.74436C436.686 4.84985 436.157 4.69519 435.293 4.76926C434.428 4.84334 433.389 4.95376 432.402 4.88792C431.808 4.84854 431.045 4.48685 430.76 4.39829C429.956 4.1432 429.094 4.56145 428.596 4.25254C428.094 3.94208 429.076 3.4706 427.759 3.27C427.71 3.77437 427.598 4.29206 427.52 4.79929C424.634 4.78153 421.794 4.61844 418.898 4.64072C418.539 4.64399 418.907 4.91514 418.522 4.92564C416.898 4.96871 415.48 4.77542 413.796 4.85239C412.493 4.91302 411.064 5.20011 409.701 5.27244C408.868 4.69529 406.846 4.89122 405.377 4.83848C404.862 4.82025 404.896 4.66611 404.53 4.61582C403.15 4.42984 403.797 4.93985 403.418 5.02012C401.794 5.36267 401.655 4.20827 399.741 4.23679C399.639 4.23792 398.399 4.85326 398.228 4.89158C397.143 5.14145 398.049 4.6774 397.37 4.63194C396.13 4.54885 395.268 4.4019 393.813 4.58213C393.389 4.63552 392.372 5.01905 391.548 4.72239C391.44 4.68354 391.499 4.48015 391.412 4.46824C389.833 4.26969 389.792 4.90878 388.89 5.12522C387.987 5.34162 386.593 4.90044 386.31 4.77329C385.568 4.44436 386.879 4.63272 386.919 4.60044C387.391 4.2163 386.374 4.28244 385.598 4.24998C385.485 3.62335 384.399 3.66096 384.792 4.21885C384.837 4.27979 385.442 4.22135 385.598 4.24998C384.916 4.86479 383.722 4.94353 382.404 4.369C381.787 4.09972 382.37 3.78576 380.495 3.90061C379.644 3.95246 379.973 4.38393 379.222 4.50156C377.507 4.76996 375.278 4.36747 373.509 4.43089C372.868 4.45391 373.493 4.69009 373.054 4.71397C371.89 4.77806 370.863 4.60085 369.694 4.69163C369.588 4.70015 369.847 4.94739 369.484 4.95054C366.727 4.97925 364.328 4.82089 361.45 4.8165C360.06 4.8145 357.574 4.95085 356.133 4.92344C353.637 4.87738 350.566 4.51786 348.433 4.6052C347.042 4.66111 347.348 4.90839 346.752 5.07688C345.602 5.40348 343.566 4.81847 343.292 4.72788C343.283 4.72488 344.48 4.66659 343.842 4.53965C343.47 4.27515 343.305 4.72674 343.292 4.72788C343.112 4.66936 340.721 4.61323 340.246 4.6605C339.988 4.68633 340.132 4.92062 339.998 4.92966C336.801 5.13933 333.598 5.19888 330.356 5.08933C330.299 5.0846 330.384 4.82253 330.25 4.81467C328.373 4.69815 327.171 5.01874 325.623 5.20908C324.075 5.39934 322.847 5.33561 321.931 4.88572C320.763 4.94236 319.087 4.74347 318.123 4.62278C317.159 4.5021 317.024 5.01223 316.939 5.02231C314.293 5.3451 312.763 5.05311 310.018 5.00767C308.712 4.98519 306.123 5.05918 304.71 5.11497C303.593 5.15991 302.92 5.04035 301.891 5.1168C301.752 5.12701 301.892 5.35414 301.85 5.36289C300.701 5.63465 301.253 5.07937 301.016 4.9802C300.157 4.61956 299.625 4.42749 298.154 4.59715C297.815 4.636 296.827 5.43552 296.209 5.48227C295.404 5.5416 295.708 5.25502 294.866 5.32444C294.794 5.33012 294.809 5.50692 294.289 5.49912C291.877 5.46526 289.248 5.36238 286.741 5.3801C286.399 5.38184 286.838 5.66227 286.343 5.66941C284.022 5.70265 281.478 5.69227 279.216 5.56101C278.66 5.52782 279.009 5.33147 278.888 5.27317C278.146 4.92041 277.094 5.43296 276.92 5.44272C272.78 5.68903 269.611 5.22518 265.391 5.44602C265.161 5.45898 263.393 6.00844 262.604 5.53721C262.55 5.50585 261.77 5.02373 261.079 5.35337C261.037 5.37399 261.523 5.6222 260.674 5.5969C259.825 5.57166 258.46 5.73741 257.293 5.4647C256.924 5.37879 256.051 4.89786 254.949 5.28123C254.877 5.30799 253.176 6.17484 252.569 5.57676C252.471 5.47831 252.574 4.8454 251.259 5.1699C251.007 5.23281 251.464 5.37398 250.802 5.46213C249.788 5.598 248.444 5.42848 247.197 5.71042C246.98 5.76034 246.054 6.18992 245.312 5.86386C245.196 5.8128 245.417 5.6015 245.024 5.57786C243.16 5.46443 241.208 5.60576 239.315 5.45957C238.645 5.4082 238.987 5.06661 238.289 4.97507C237.59 4.88357 236.181 4.79554 235.45 4.95164C234.718 5.1078 235.518 5.65221 234.422 5.69577C229.657 5.88498 224.938 5.56561 220.18 5.5189C219.475 5.51192 220.06 5.70672 219.02 5.71042C215.186 5.72492 208.568 5.90757 205.241 5.49363C202.576 5.16208 205.93 4.90967 203.893 4.77476C202.911 4.7104 201.847 5.34333 201.61 5.36326C199.292 5.56567 197.681 5.28529 195.595 5.37131C195.165 5.38916 195.587 5.6457 195.22 5.65806C193.968 5.70254 192.652 5.58804 191.455 5.60898C190.918 5.61897 191.017 5.8149 190.523 5.79978C189.341 5.76585 188.296 5.68349 187.144 5.49985C187.039 5.48312 187.747 5.23939 186.872 5.23032C185.457 5.21634 183.7 5.03518 182.072 5.22227C181.589 5.27854 181.57 5.72634 180.531 5.41709C180.313 5.3525 180.591 4.81479 179.381 5.27939C179.178 5.3566 177.146 5.98326 176.148 5.57932C175.885 5.47301 175.214 5.033 174.633 5.10215C174.554 5.11318 174.869 5.35371 174.388 5.37717C172.691 5.45567 170.913 5.43001 169.17 5.50535C168.704 5.52594 169.397 5.77484 168.704 5.79758C166.796 5.86049 164.414 5.79712 162.548 5.71921C161.86 5.69002 162.336 5.48384 162.286 5.4614C161.481 5.09645 161.005 5.58905 160.738 5.61777C159.076 5.78976 157.811 5.55837 156.28 5.6196C155.857 5.63588 156.157 5.87075 156.073 5.8917C155.2 6.09633 155.85 5.67452 155.298 5.62803C153.751 5.49637 152.026 5.51525 150.462 5.54526C149.887 5.55663 150.533 5.82898 150.017 5.83603C146.965 5.88296 143.791 5.8569 140.812 5.70676C140.251 5.678 140.604 5.46828 140.487 5.42038C139.682 5.08527 138.501 5.54237 138.229 5.58591C136.993 5.78472 136.514 5.59927 135.422 5.63389C130.092 5.80623 123.511 5.6834 118.48 5.60752C111.924 5.50986 106.836 5.31035 100.584 5.36216C100.187 5.36519 100.588 5.64417 100.245 5.65036C95.8228 5.71762 91.469 5.6086 87.0377 5.68918C86.6741 5.6953 87.1982 5.95978 86.6146 5.97849C85.4175 6.01872 83.901 6.00434 82.6906 5.91989C82.1002 5.87921 82.8921 5.65226 82.2978 5.61594C80.9141 5.53085 79.4309 5.51202 78.0096 5.55442C77.4047 5.57304 78.3173 5.84353 77.5311 5.84665C72.1758 5.87349 66.9163 5.92007 61.5046 5.5698C61.1336 5.54574 60.8081 4.99599 60.0193 5.10142C59.9599 5.25399 59.9631 5.43346 59.9371 5.59653C52.1412 5.68438 44.4249 5.4938 36.6071 5.46433C36.2775 5.46315 36.8471 5.75444 36.209 5.75364C32.5155 5.74933 28.9289 5.83002 25.1509 5.5405C24.7761 5.51219 24.9684 4.99974 23.8637 5.07725C23.6689 5.09139 22.0052 5.15973 21.575 5.27097C21.5166 5.28775 21.8201 5.52694 21.284 5.53391C18.1685 5.57023 14.9036 5.51563 11.7934 5.36948C11.2915 5.34544 11.826 5.09072 11.4685 5.07139C8.93251 4.93617 6.17404 5.1298 3.75075 4.89854C2.12869 4.74282 2.72923 4.30252 1.86728 3.86912C1.74537 3.80797 0.740937 3.79828 0.688995 3.54612C0.555644 2.91204 1.04216 2.21773 0.842529 1.54186C0.800353 1.39628 -0.544839 1.55308 0.251601 1.20128C0.307241 1.17774 1.28251 1.06098 1.52272 0.941639C1.68996 0.859129 1.38859 0.602682 1.72981 0.497061C2.07101 0.391538 2.44594 0.606507 3.01165 0.482412C3.5771 0.356782 3.32846 0.0650439 4.45773 0.0305095ZM313.781 4.08335C312.888 3.83837 312.756 4.73565 313.722 4.52097C313.769 4.50953 313.827 4.09537 313.781 4.08335ZM421.81 3.94163C420.643 3.54586 419.844 4.1278 420.668 4.43345C421.491 4.73877 422.166 4.0616 421.81 3.94163ZM433.914 3.65269C432.55 3.34065 432.335 4.61303 433.797 4.35581C433.882 4.34128 433.994 3.67081 433.914 3.65269ZM5.86453 3.74571C5.8522 3.73379 5.13018 3.72218 5.11292 3.73399C4.72846 4.01896 6.17221 4.04199 5.86453 3.74571ZM445.926 3.33812C445.5 3.166 444.274 3.36469 444.803 3.57872C445.229 3.7509 446.456 3.55222 445.926 3.33812ZM267.205 3.12571C267.191 3.11234 266.673 3.1003 266.684 3.17589C266.719 3.41932 267.439 3.35061 267.205 3.12571ZM466.341 3.32347C463.324 3.27557 461.496 2.22452 464.78 2.34312C465.375 2.36458 463.498 2.6783 464.255 2.77305C465.641 2.94569 466.56 2.28576 467.974 2.63939C468.23 2.70411 466.513 3.32854 466.335 3.32493C466.337 3.32444 466.339 3.32396 466.341 3.32347ZM313.267 3.0056C313.249 2.99373 312.532 2.98248 312.515 2.99425C312.127 3.27911 313.571 3.30194 313.267 3.0056ZM237 2.57091C236.96 2.54562 235.297 2.52198 235.243 2.54527C234.375 3.0111 237.737 3.06029 237 2.57091ZM361.527 2.34898C362.309 2.06241 363.244 2.02867 363.867 2.38853C363.09 2.36943 362.308 2.36662 361.527 2.34898Z" fill="url(#paint0_linear_498_3270)"/>
<defs>
<linearGradient id="paint0_linear_498_3270" x1="0" y1="3.5" x2="468" y2="3.5" gradientUnits="userSpaceOnUse">
<stop stop-color="#15C15D"/>
<stop offset="1" stop-color="#13EC6D"/>
</linearGradient>
</defs>
</svg>
