<svg width="124" height="42" viewBox="0 0 124 42" fill="none" xmlns="http://www.w3.org/2000/svg">
<g clip-path="url(#clip0_292_12005)">
<path d="M118.826 38.7883H4.31599C1.93667 38.7883 0 36.8461 0 34.4686V6.59499C0 4.21658 1.93667 2.28174 4.31599 2.28174H118.826C121.204 2.28174 123.21 4.21658 123.21 6.59499V34.4686C123.21 36.8461 121.204 38.7883 118.826 38.7883Z" fill="#A6A6A6"/>
<path d="M122.326 34.4695C122.326 36.4007 120.762 37.965 118.827 37.965H4.31597C2.38204 37.965 0.812256 36.4007 0.812256 34.4695V6.59406C0.812256 4.66378 2.38204 3.09399 4.31597 3.09399H118.826C120.762 3.09399 122.325 4.66378 122.325 6.59406L122.326 34.4695Z" fill="white"/>
<path d="M27.4967 20.3379C27.4702 17.3964 29.9052 15.9654 30.0166 15.8987C28.6375 13.8881 26.5001 13.6134 25.749 13.5915C23.9537 13.4026 22.2124 14.6657 21.2979 14.6657C20.3652 14.6657 18.9569 13.6098 17.4392 13.6408C15.4861 13.6709 13.6589 14.8017 12.6568 16.5577C10.5887 20.1381 12.1311 25.3996 14.1125 28.2936C15.1036 29.711 16.2618 31.2935 17.7778 31.2379C19.2608 31.1767 19.8148 30.2924 21.6045 30.2924C23.3779 30.2924 23.8981 31.2379 25.4441 31.2023C27.0358 31.1767 28.0379 29.7785 28.9944 28.3484C30.1398 26.7238 30.5998 25.1239 30.618 25.0418C30.5806 25.029 27.5268 23.8636 27.4967 20.3379Z" fill="black"/>
<path d="M24.5762 11.6877C25.3739 10.6901 25.9196 9.33302 25.7681 7.95581C24.6136 8.00692 23.1698 8.75439 22.3384 9.73003C21.6028 10.5898 20.9456 11.9989 21.1154 13.3241C22.4123 13.4208 23.7439 12.6697 24.5762 11.6877Z" fill="black"/>
<path d="M48.9598 31.0344H46.8872L45.7518 27.4668H41.8055L40.724 31.0344H38.7061L42.6159 18.8887H45.0308L48.9598 31.0344ZM45.4096 25.97L44.3828 22.7985C44.2742 22.4745 44.0707 21.7115 43.7704 20.5105H43.7339C43.6144 21.027 43.4218 21.79 43.1571 22.7985L42.1486 25.97H45.4096Z" fill="black"/>
<path d="M59.0146 26.5477C59.0146 28.0372 58.6121 29.2145 57.8072 30.0788C57.0862 30.8482 56.1908 31.2324 55.1221 31.2324C53.9685 31.2324 53.1398 30.8181 52.6351 29.9894H52.5986V34.6029H50.6528V25.1596C50.6528 24.2232 50.6281 23.2622 50.5807 22.2765H52.2919L52.4005 23.6646H52.437C53.0859 22.6187 54.0707 22.0967 55.3922 22.0967C56.4254 22.0967 57.2879 22.5046 57.9778 23.3215C58.6696 24.1392 59.0146 25.2143 59.0146 26.5477ZM57.0323 26.6189C57.0323 25.7665 56.8406 25.0637 56.4555 24.5107C56.0348 23.9339 55.4698 23.6455 54.7616 23.6455C54.2815 23.6455 53.8453 23.8061 53.4556 24.1228C53.065 24.4422 52.8094 24.8593 52.6899 25.3759C52.6296 25.6168 52.5995 25.814 52.5995 25.9691V27.4294C52.5995 28.0664 52.7948 28.604 53.1854 29.043C53.576 29.482 54.0835 29.701 54.7078 29.701C55.4406 29.701 56.011 29.4181 56.419 28.854C56.8279 28.2891 57.0323 27.5444 57.0323 26.6189Z" fill="black"/>
<path d="M69.0877 26.5477C69.0877 28.0372 68.6852 29.2145 67.8793 30.0788C67.1592 30.8482 66.2639 31.2324 65.1952 31.2324C64.0416 31.2324 63.2129 30.8181 62.7091 29.9894H62.6726V34.6029H60.7268V25.1596C60.7268 24.2232 60.7021 23.2622 60.6547 22.2765H62.3659L62.4745 23.6646H62.511C63.159 22.6187 64.1438 22.0967 65.4662 22.0967C66.4985 22.0967 67.3609 22.5046 68.0527 23.3215C68.7418 24.1392 69.0877 25.2143 69.0877 26.5477ZM67.1054 26.6189C67.1054 25.7665 66.9128 25.0637 66.5277 24.5107C66.1069 23.9339 65.5438 23.6455 64.8347 23.6455C64.3537 23.6455 63.9183 23.8061 63.5277 24.1228C63.1371 24.4422 62.8825 24.8593 62.7629 25.3759C62.7036 25.6168 62.6726 25.814 62.6726 25.9691V27.4294C62.6726 28.0664 62.8679 28.604 63.2567 29.043C63.6473 29.481 64.1547 29.701 64.7808 29.701C65.5137 29.701 66.0841 29.4181 66.4921 28.854C66.9009 28.2891 67.1054 27.5444 67.1054 26.6189Z" fill="black"/>
<path d="M80.35 27.6283C80.35 28.6615 79.9913 29.502 79.2712 30.1509C78.48 30.8601 77.3784 31.2142 75.9628 31.2142C74.6559 31.2142 73.6082 30.9623 72.8151 30.4576L73.2659 28.8358C74.1202 29.3524 75.0575 29.6115 76.0788 29.6115C76.8116 29.6115 77.382 29.4454 77.7918 29.1151C78.1998 28.7847 78.4033 28.3411 78.4033 27.788C78.4033 27.2952 78.2354 26.8799 77.8986 26.5432C77.5637 26.2064 77.0042 25.8934 76.223 25.604C74.0964 24.8109 73.0341 23.6491 73.0341 22.1213C73.0341 21.1229 73.4065 20.3042 74.1521 19.6672C74.895 19.0292 75.8862 18.7107 77.1256 18.7107C78.2308 18.7107 79.149 18.9033 79.8818 19.2875L79.3954 20.8737C78.7109 20.5013 77.9369 20.3152 77.0708 20.3152C76.3863 20.3152 75.8515 20.484 75.4682 20.8199C75.1442 21.1201 74.9817 21.4861 74.9817 21.9196C74.9817 22.3997 75.167 22.7967 75.5394 23.1088C75.8634 23.3972 76.452 23.7094 77.3063 24.0461C78.3513 24.4669 79.1188 24.9588 79.6126 25.5228C80.1045 26.085 80.35 26.7887 80.35 27.6283Z" fill="black"/>
<path d="M86.7833 23.7367H84.6385V27.9888C84.6385 29.0703 85.0164 29.6106 85.7739 29.6106C86.1216 29.6106 86.41 29.5805 86.6382 29.5202L86.692 30.9978C86.3087 31.1411 85.804 31.2132 85.1788 31.2132C84.4104 31.2132 83.8099 30.9787 83.3763 30.5105C82.9446 30.0414 82.7274 29.2546 82.7274 28.1494V23.7349H81.4497V22.2746H82.7274V20.671L84.6385 20.0942V22.2746H86.7833V23.7367Z" fill="black"/>
<path d="M96.4606 26.5834C96.4606 27.9296 96.0754 29.0348 95.307 29.8991C94.5011 30.789 93.4314 31.2325 92.098 31.2325C90.813 31.2325 89.7899 30.8063 89.0269 29.9539C88.2639 29.1014 87.8824 28.0254 87.8824 26.7285C87.8824 25.3714 88.2749 24.2598 89.0625 23.3955C89.8483 22.5303 90.9088 22.0977 92.2422 22.0977C93.5273 22.0977 94.5613 22.5239 95.3416 23.3772C96.0882 24.205 96.4606 25.2737 96.4606 26.5834ZM94.4418 26.6464C94.4418 25.8387 94.2693 25.146 93.9197 24.5682C93.5118 23.8691 92.9286 23.5205 92.1729 23.5205C91.3907 23.5205 90.7966 23.87 90.3886 24.5682C90.0391 25.1469 89.8666 25.8505 89.8666 26.6829C89.8666 27.4906 90.0391 28.1833 90.3886 28.7601C90.8094 29.4592 91.3971 29.8078 92.1555 29.8078C92.8984 29.8078 93.4816 29.4519 93.9024 28.7418C94.2611 28.1532 94.4418 27.4532 94.4418 26.6464Z" fill="black"/>
<path d="M102.785 23.9877C102.593 23.9521 102.387 23.9339 102.172 23.9339C101.487 23.9339 100.958 24.1922 100.586 24.7096C100.262 25.166 100.099 25.7428 100.099 26.4391V31.0344H98.1542L98.1725 25.0345C98.1725 24.0251 98.1479 23.1061 98.0995 22.2774H99.7943L99.8655 23.953H99.9193C100.125 23.3771 100.449 22.9135 100.892 22.5658C101.326 22.2527 101.794 22.0967 102.299 22.0967C102.478 22.0967 102.641 22.1095 102.785 22.1323V23.9877Z" fill="black"/>
<path d="M111.487 26.2412C111.487 26.5898 111.464 26.8837 111.416 27.1237H105.579C105.602 27.9889 105.884 28.6506 106.426 29.1069C106.918 29.5149 107.554 29.7193 108.335 29.7193C109.199 29.7193 109.988 29.5815 110.697 29.305L111.002 30.6557C110.173 31.0171 109.195 31.1969 108.066 31.1969C106.708 31.1969 105.642 30.7972 104.866 29.9986C104.092 29.2 103.704 28.1276 103.704 26.7824C103.704 25.4617 104.065 24.362 104.787 23.4849C105.542 22.5485 106.563 22.0803 107.849 22.0803C109.111 22.0803 110.066 22.5485 110.715 23.4849C111.229 24.2287 111.487 25.1487 111.487 26.2412ZM109.632 25.7365C109.645 25.1596 109.518 24.6613 109.254 24.2406C108.917 23.6994 108.4 23.4292 107.703 23.4292C107.067 23.4292 106.55 23.693 106.155 24.2223C105.831 24.6431 105.638 25.1478 105.579 25.7355L109.632 25.7365Z" fill="black"/>
<path d="M44.7661 11.4165C44.7661 12.4907 44.4439 13.2994 43.8005 13.8424C43.2045 14.3435 42.3576 14.5944 41.2606 14.5944C40.7166 14.5944 40.2512 14.5707 39.8615 14.5232V8.65391C40.3698 8.57177 40.9174 8.52979 41.5088 8.52979C42.5538 8.52979 43.3414 8.75704 43.8726 9.21154C44.4677 9.72537 44.7661 10.4601 44.7661 11.4165ZM43.7576 11.443C43.7576 10.7466 43.5733 10.2127 43.2045 9.84037C42.8358 9.46892 42.2974 9.28273 41.5882 9.28273C41.287 9.28273 41.0306 9.30281 40.8179 9.34479V13.8068C40.9357 13.8251 41.151 13.8333 41.4641 13.8333C42.196 13.8333 42.761 13.6297 43.1589 13.2227C43.5568 12.8157 43.7576 12.2224 43.7576 11.443Z" fill="black"/>
<path d="M50.1134 12.3548C50.1134 13.0165 49.9245 13.5586 49.5467 13.9839C49.1506 14.4211 48.6258 14.6392 47.9705 14.6392C47.3389 14.6392 46.8361 14.4302 46.4609 14.0104C46.0868 13.5914 45.8997 13.063 45.8997 12.426C45.8997 11.7597 46.0922 11.213 46.4792 10.7887C46.8662 10.3643 47.3864 10.1516 48.0417 10.1516C48.6732 10.1516 49.1807 10.3606 49.5649 10.7795C49.93 11.1866 50.1134 11.7123 50.1134 12.3548ZM49.1214 12.3858C49.1214 11.9888 49.0356 11.6484 48.8649 11.3645C48.6641 11.0214 48.3785 10.8498 48.007 10.8498C47.6228 10.8498 47.3307 11.0214 47.1299 11.3645C46.9583 11.6484 46.8735 11.9943 46.8735 12.4032C46.8735 12.8002 46.9593 13.1406 47.1299 13.4244C47.3371 13.7676 47.6255 13.9392 47.9979 13.9392C48.3629 13.9392 48.6495 13.7648 48.8558 13.4153C49.0328 13.126 49.1214 12.7828 49.1214 12.3858Z" fill="black"/>
<path d="M57.2833 10.2393L55.9371 14.5416H55.061L54.5033 12.6733C54.3619 12.207 54.2469 11.7433 54.1574 11.2833H54.1401C54.057 11.7561 53.942 12.2188 53.7942 12.6733L53.2019 14.5416H52.3157L51.0498 10.2393H52.0327L52.5192 12.2845C52.6369 12.7682 52.7337 13.2291 52.8112 13.6654H52.8286C52.8998 13.3058 53.0175 12.8477 53.1836 12.2937L53.7942 10.2402H54.5736L55.1586 12.2499C55.3001 12.74 55.4151 13.2118 55.5036 13.6663H55.5301C55.5949 13.2237 55.6925 12.7518 55.8221 12.2499L56.3442 10.2402H57.2833V10.2393Z" fill="black"/>
<path d="M62.2418 14.5416H61.2854V12.0774C61.2854 11.318 60.997 10.9384 60.4183 10.9384C60.1345 10.9384 59.9054 11.0424 59.7274 11.2514C59.5513 11.4604 59.4619 11.7068 59.4619 11.9889V14.5407H58.5054V11.4686C58.5054 11.0908 58.4935 10.681 58.4707 10.2375H59.3113L59.356 10.9101H59.3825C59.4938 10.7011 59.6599 10.5286 59.878 10.3908C60.1372 10.2302 60.4275 10.1489 60.7451 10.1489C61.1466 10.1489 61.4807 10.2785 61.7462 10.5386C62.0766 10.8572 62.2418 11.3327 62.2418 11.9642V14.5416Z" fill="black"/>
<path d="M64.8794 14.5415H63.9238V8.26514H64.8794V14.5415Z" fill="black"/>
<path d="M70.5105 12.3548C70.5105 13.0165 70.3216 13.5586 69.9438 13.9839C69.5477 14.4211 69.022 14.6392 68.3676 14.6392C67.7351 14.6392 67.2322 14.4302 66.858 14.0104C66.4838 13.5914 66.2968 13.063 66.2968 12.426C66.2968 11.7597 66.4893 11.213 66.8763 10.7887C67.2633 10.3643 67.7835 10.1516 68.4379 10.1516C69.0703 10.1516 69.5769 10.3606 69.962 10.7795C70.3271 11.1866 70.5105 11.7123 70.5105 12.3548ZM69.5175 12.3858C69.5175 11.9888 69.4318 11.6484 69.2611 11.3645C69.0612 11.0214 68.7746 10.8498 68.4041 10.8498C68.0189 10.8498 67.7269 11.0214 67.527 11.3645C67.3554 11.6484 67.2706 11.9943 67.2706 12.4032C67.2706 12.8002 67.3564 13.1406 67.527 13.4244C67.7342 13.7676 68.0226 13.9392 68.395 13.9392C68.76 13.9392 69.0457 13.7648 69.252 13.4153C69.4299 13.126 69.5175 12.7828 69.5175 12.3858Z" fill="black"/>
<path d="M75.1396 14.5415H74.2807L74.2095 14.0459H74.1831C73.8892 14.4411 73.4703 14.6392 72.9263 14.6392C72.5202 14.6392 72.1917 14.5087 71.9443 14.2495C71.7198 14.014 71.6075 13.721 71.6075 13.3733C71.6075 12.8476 71.8266 12.447 72.2674 12.1695C72.7073 11.8921 73.3261 11.7561 74.1228 11.7625V11.6821C74.1228 11.1154 73.8253 10.8325 73.2293 10.8325C72.805 10.8325 72.4308 10.9392 72.1077 11.151L71.9133 10.5231C72.313 10.2757 72.8068 10.1516 73.3891 10.1516C74.5135 10.1516 75.0775 10.7448 75.0775 11.9313V13.5157C75.0775 13.9456 75.0985 14.2878 75.1396 14.5415ZM74.1466 13.063V12.3995C73.0915 12.3812 72.564 12.6706 72.564 13.2665C72.564 13.491 72.6243 13.659 72.7475 13.7712C72.8707 13.8835 73.0276 13.9392 73.2147 13.9392C73.4247 13.9392 73.6209 13.8725 73.7998 13.7402C73.9796 13.607 74.09 13.4381 74.1311 13.2309C74.1411 13.1844 74.1466 13.1278 74.1466 13.063Z" fill="black"/>
<path d="M80.5745 14.5415H79.7257L79.681 13.8506H79.6545C79.3835 14.3763 78.9217 14.6392 78.2728 14.6392C77.7544 14.6392 77.3227 14.4357 76.9804 14.0286C76.6382 13.6216 76.4675 13.0931 76.4675 12.4442C76.4675 11.7479 76.6528 11.1838 77.0252 10.7531C77.3857 10.3515 77.8274 10.1507 78.3531 10.1507C78.9308 10.1507 79.3351 10.3451 79.5651 10.7348H79.5834V8.26514H80.5407V13.3824C80.5407 13.8014 80.5517 14.1874 80.5745 14.5415ZM79.5834 12.7271V12.0098C79.5834 11.8857 79.5742 11.7853 79.5569 11.7086C79.503 11.4786 79.3871 11.2851 79.211 11.1291C79.033 10.973 78.8185 10.8945 78.5712 10.8945C78.2144 10.8945 77.9351 11.036 77.7297 11.3198C77.5262 11.6037 77.4231 11.966 77.4231 12.4086C77.4231 12.8339 77.5207 13.1789 77.717 13.4445C77.9241 13.7274 78.2034 13.8689 78.553 13.8689C78.8669 13.8689 79.1179 13.7512 79.3086 13.5148C79.493 13.2967 79.5834 13.0338 79.5834 12.7271Z" fill="black"/>
<path d="M88.7547 12.3548C88.7547 13.0165 88.5657 13.5586 88.1879 13.9839C87.7918 14.4211 87.2679 14.6392 86.6117 14.6392C85.9811 14.6392 85.4782 14.4302 85.1022 14.0104C84.728 13.5914 84.5409 13.063 84.5409 12.426C84.5409 11.7597 84.7335 11.213 85.1204 10.7887C85.5074 10.3643 86.0276 10.1516 86.6838 10.1516C87.3145 10.1516 87.8228 10.3606 88.2062 10.7795C88.5712 11.1866 88.7547 11.7123 88.7547 12.3548ZM87.7635 12.3858C87.7635 11.9888 87.6777 11.6484 87.5071 11.3645C87.3054 11.0214 87.0206 10.8498 86.6482 10.8498C86.2649 10.8498 85.9729 11.0214 85.7712 11.3645C85.5996 11.6484 85.5147 11.9943 85.5147 12.4032C85.5147 12.8002 85.6005 13.1406 85.7712 13.4244C85.9783 13.7676 86.2667 13.9392 86.6391 13.9392C87.0042 13.9392 87.2917 13.7648 87.4979 13.4153C87.6741 13.126 87.7635 12.7828 87.7635 12.3858Z" fill="black"/>
<path d="M93.8975 14.5416H92.942V12.0774C92.942 11.318 92.6536 10.9384 92.074 10.9384C91.7902 10.9384 91.5611 11.0424 91.3841 11.2514C91.207 11.4604 91.1185 11.7068 91.1185 11.9889V14.5407H90.1611V11.4686C90.1611 11.0908 90.1501 10.681 90.1273 10.2375H90.967L91.0117 10.9101H91.0382C91.1504 10.7011 91.3165 10.5286 91.5337 10.3908C91.7938 10.2302 92.0832 10.1489 92.4017 10.1489C92.8023 10.1489 93.1364 10.2785 93.402 10.5386C93.7333 10.8572 93.8975 11.3327 93.8975 11.9642V14.5416Z" fill="black"/>
<path d="M100.334 10.9556H99.2813V13.0456C99.2813 13.5768 99.4684 13.8424 99.8389 13.8424C100.01 13.8424 100.153 13.8278 100.265 13.7977L100.29 14.5232C100.101 14.5944 99.8526 14.63 99.5469 14.63C99.169 14.63 98.8751 14.515 98.6625 14.285C98.4489 14.055 98.3431 13.6681 98.3431 13.125V10.9556H97.7142V10.2392H98.3431V9.45065L99.2804 9.16772V10.2383H100.334L100.334 10.9556Z" fill="black"/>
<path d="M105.398 14.5415H104.441V12.0956C104.441 11.3244 104.152 10.9383 103.574 10.9383C103.131 10.9383 102.828 11.1619 102.662 11.6091C102.633 11.7031 102.617 11.8181 102.617 11.9532V14.5406H101.661V8.26514H102.617V10.858H102.635C102.936 10.3862 103.368 10.1507 103.928 10.1507C104.324 10.1507 104.651 10.2803 104.911 10.5404C105.235 10.8644 105.398 11.3463 105.398 11.9833V14.5415Z" fill="black"/>
<path d="M110.621 12.1868C110.621 12.3583 110.608 12.5025 110.586 12.6203H107.717C107.73 13.0456 107.867 13.3696 108.132 13.5941C108.375 13.7949 108.688 13.8953 109.071 13.8953C109.496 13.8953 109.883 13.8277 110.231 13.6917L110.381 14.3562C109.973 14.5332 109.493 14.6217 108.937 14.6217C108.271 14.6217 107.746 14.4255 107.367 14.0331C106.985 13.6406 106.796 13.114 106.796 12.4533C106.796 11.8044 106.972 11.2641 107.327 10.8333C107.698 10.3733 108.199 10.1433 108.831 10.1433C109.45 10.1433 109.92 10.3733 110.238 10.8333C110.494 11.1983 110.621 11.6501 110.621 12.1868ZM109.708 11.9394C109.716 11.6556 109.653 11.411 109.523 11.2047C109.357 10.9392 109.104 10.8059 108.762 10.8059C108.45 10.8059 108.195 10.9355 108.001 11.1956C107.842 11.4028 107.748 11.6501 107.717 11.9394H109.708Z" fill="black"/>
</g>
<defs>
<clipPath id="clip0_292_12005">
<rect width="123.21" height="41.0699" fill="white"/>
</clipPath>
</defs>
</svg>
