<svg width="29" height="29" viewBox="0 0 29 29" fill="none" xmlns="http://www.w3.org/2000/svg">
<path d="M3.42894 20.9996H25.5816C25.8091 21 26.0279 21.0818 26.1939 21.2286C26.36 21.3753 26.4608 21.5761 26.4762 21.7904C26.4916 22.0046 26.4202 22.2164 26.2766 22.383C26.1331 22.5495 25.9279 22.6584 25.7026 22.6877L25.5816 22.6956H3.42894C3.19978 22.6978 2.9784 22.6172 2.81013 22.4703C2.64185 22.3234 2.53943 22.1213 2.52382 21.9054C2.50821 21.6895 2.58059 21.4762 2.72616 21.309C2.87173 21.1419 3.07945 21.0336 3.30681 21.0064L3.42894 20.9996ZM3.42775 6.30435H25.5804C25.808 6.30442 26.027 6.38604 26.1933 6.53272C26.3595 6.67939 26.4606 6.8802 26.4762 7.09455C26.4917 7.30891 26.4204 7.52083 26.2768 7.68749C26.1332 7.85416 25.928 7.96315 25.7026 7.99244L25.5804 8.00035H3.42775C3.20021 8.00028 2.98117 7.91867 2.81491 7.77199C2.64864 7.62531 2.54754 7.4245 2.53203 7.21015C2.51652 6.9958 2.58776 6.78388 2.73135 6.61721C2.87495 6.45054 3.08019 6.34155 3.30561 6.31227L3.42775 6.30435Z" fill="#353535"/>
<line x1="9.47617" y1="14.4804" x2="25.8283" y2="14.4804" stroke="#353535" stroke-width="1.3" stroke-linecap="round"/>
</svg>
