<svg width="124" height="42" viewBox="0 0 124 42" fill="none" xmlns="http://www.w3.org/2000/svg">
<g clip-path="url(#clip0_292_12038)">
<path d="M118.644 38.7881H4.56564C2.05587 38.7881 0.00244141 36.7347 0.00244141 34.2249V6.84567C0.00244141 4.33589 2.05587 2.28247 4.56564 2.28247H118.644C121.154 2.28247 123.207 4.33589 123.207 6.84567V34.2249C123.207 36.7347 121.154 38.7881 118.644 38.7881Z" fill="white"/>
<path d="M118.644 2.28247H4.56564C2.05587 2.28247 0.00244141 4.33589 0.00244141 6.84567V34.2249C0.00244141 36.7347 2.05587 38.7881 4.56564 38.7881H118.644C121.154 38.7881 123.207 36.7347 123.207 34.2249V6.84567C123.207 4.33589 121.154 2.28247 118.644 2.28247ZM118.644 3.01221C120.758 3.01221 122.477 4.73201 122.477 6.84567V34.2249C122.477 36.3386 120.758 38.0583 118.644 38.0583H4.56564C2.45198 38.0583 0.732937 36.3386 0.732937 34.2249V6.84567C0.732937 4.73201 2.45198 3.01221 4.56564 3.01221H118.644Z" fill="#A2A2A1"/>
<path d="M97.5956 29.6616H99.2986V18.2517H97.5956V29.6616ZM112.935 22.3621L110.982 27.3085H110.924L108.898 22.3621H107.064L110.103 29.2755L108.37 33.1214H110.146L114.828 22.3624L112.935 22.3621ZM103.276 28.3655C102.72 28.3655 101.941 28.0864 101.941 27.3966C101.941 26.516 102.91 26.1784 103.746 26.1784C104.495 26.1784 104.848 26.3395 105.302 26.5598C105.17 27.6168 104.26 28.3655 103.276 28.3655ZM103.483 22.1125C102.25 22.1125 100.973 22.6558 100.444 23.8594L101.956 24.4904C102.279 23.8594 102.88 23.6541 103.512 23.6541C104.392 23.6541 105.288 24.1821 105.302 25.1218V25.2391C104.994 25.0629 104.333 24.7988 103.526 24.7988C101.896 24.7988 100.238 25.6939 100.238 27.3673C100.238 28.8939 101.574 29.8775 103.071 29.8775C104.215 29.8775 104.848 29.3637 105.243 28.7617H105.302V29.6429H106.947V25.2682C106.947 23.2426 105.434 22.1125 103.483 22.1125ZM92.9577 23.751H90.5355V19.8403H92.9577C94.2309 19.8403 94.9536 20.8941 94.9536 21.7956C94.9536 22.6798 94.2308 23.751 92.9577 23.751ZM92.9139 18.2519H88.8333V29.6618H90.5356V25.3393H92.9139C94.8013 25.3393 96.6567 23.9732 96.6567 21.796C96.6567 19.6192 94.8012 18.2519 92.9139 18.2519ZM70.6629 28.3675C69.4864 28.3675 68.5017 27.3821 68.5017 26.0299C68.5017 24.662 69.4864 23.6627 70.6629 23.6627C71.8244 23.6627 72.736 24.6621 72.736 26.0299C72.736 27.3821 71.8244 28.3675 70.6629 28.3675ZM72.6183 23.0008H72.5595C72.1773 22.5451 71.4418 22.1334 70.516 22.1334C68.5749 22.1334 66.7959 23.8392 66.7959 26.0299C66.7959 28.2056 68.5749 29.8965 70.516 29.8965C71.4418 29.8965 72.1773 29.4847 72.5595 29.0145H72.6183V29.5728C72.6183 31.0583 71.8244 31.8519 70.5452 31.8519C69.5017 31.8519 68.8547 31.1021 68.5898 30.47L67.1051 31.0875C67.5311 32.1163 68.663 33.3812 70.5453 33.3812C72.5453 33.3812 74.2361 32.2047 74.2361 29.3374V22.3685H72.6184L72.6183 23.0008ZM75.4126 29.6612H77.1174V18.2513H75.4126V29.6612ZM79.6318 25.8973C79.5879 24.3975 80.794 23.6331 81.661 23.6331C82.3376 23.6331 82.9105 23.9714 83.1024 24.4563L79.6318 25.8973ZM84.9248 24.6032C84.6014 23.7362 83.6164 22.1334 81.6021 22.1334C79.6022 22.1334 77.9409 23.7066 77.9409 26.015C77.9409 28.1911 79.5879 29.8966 81.7929 29.8966C83.5719 29.8966 84.6015 28.8089 85.0281 28.1764L83.7048 27.2941C83.2635 27.9412 82.661 28.3675 81.7929 28.3675C80.9259 28.3675 80.3081 27.9704 79.9117 27.1911L85.1012 25.0446L84.9248 24.6032ZM43.5749 23.3244V24.9711H47.5153C47.3976 25.8974 47.0889 26.5736 46.6183 27.0442C46.0447 27.6174 45.1478 28.2499 43.5749 28.2499C41.1488 28.2499 39.2523 26.2945 39.2523 23.8685C39.2523 21.4425 41.1488 19.4868 43.5749 19.4868C44.8835 19.4868 45.839 20.0015 46.5448 20.6632L47.7066 19.5014C46.7212 18.5605 45.4129 17.8401 43.5749 17.8401C40.2515 17.8401 37.458 20.5455 37.458 23.8685C37.458 27.1911 40.2515 29.8966 43.5749 29.8966C45.3684 29.8966 46.7213 29.3084 47.7797 28.2057C48.8678 27.1176 49.2061 25.5886 49.2061 24.3534C49.2061 23.9715 49.1764 23.6186 49.1177 23.3244H43.5749ZM53.6863 28.3675C52.5098 28.3675 51.4953 27.397 51.4953 26.015C51.4953 24.6182 52.5098 23.6628 53.6863 23.6628C54.8624 23.6628 55.8769 24.6182 55.8769 26.015C55.8769 27.397 54.8624 28.3675 53.6863 28.3675ZM53.6863 22.1334C51.5391 22.1334 49.7897 23.7654 49.7897 26.015C49.7897 28.2499 51.5391 29.8966 53.6863 29.8966C55.8328 29.8966 57.5825 28.2499 57.5825 26.015C57.5825 23.7654 55.8328 22.1334 53.6863 22.1334ZM62.1858 28.3675C61.0101 28.3675 59.9952 27.397 59.9952 26.015C59.9952 24.6182 61.0101 23.6628 62.1858 23.6628C63.3623 23.6628 64.3765 24.6182 64.3765 26.015C64.3765 27.397 63.3623 28.3675 62.1858 28.3675ZM62.1858 22.1334C60.0393 22.1334 58.2899 23.7654 58.2899 26.015C58.2899 28.2499 60.0393 29.8966 62.1858 29.8966C64.333 29.8966 66.0824 28.2499 66.0824 26.015C66.0824 23.7654 64.333 22.1334 62.1858 22.1334Z" fill="black"/>
<path d="M18.9072 20.0096L9.19141 30.3223C9.19177 30.3244 9.1925 30.3262 9.19284 30.3284C9.49082 31.4482 10.5137 32.2728 11.7275 32.2728C12.2128 32.2728 12.6684 32.1416 13.0591 31.9113L13.0901 31.8931L24.027 25.582L18.9072 20.0096Z" fill="#EB3131"/>
<path d="M28.7372 18.2539L28.7279 18.2476L24.0061 15.5103L18.6864 20.244L24.0246 25.5815L28.7215 22.8714C29.5449 22.4269 30.104 21.5587 30.104 20.5577C30.104 19.5638 29.5525 18.6999 28.7372 18.2539Z" fill="#F6B60B"/>
<path d="M9.19006 10.749C9.13165 10.9644 9.10095 11.19 9.10095 11.4243V29.6477C9.10095 29.8815 9.13129 30.1079 9.19043 30.3225L19.2416 20.2734L9.19006 10.749Z" fill="#5778C5"/>
<path d="M18.979 20.536L24.0082 15.5083L13.0836 9.17441C12.6865 8.93658 12.2231 8.79932 11.7272 8.79932C10.5133 8.79932 9.48907 9.62537 9.19104 10.7465C9.19067 10.7476 9.19067 10.7484 9.19067 10.7493L18.979 20.536Z" fill="#3BAD49"/>
<path d="M43.2554 11.2089H40.5931V11.8678H42.5881C42.5339 12.4054 42.32 12.8275 41.9592 13.1341C41.5985 13.4407 41.1378 13.5947 40.5931 13.5947C39.9956 13.5947 39.4893 13.3865 39.0745 12.973C38.668 12.5509 38.4613 12.029 38.4613 11.4001C38.4613 10.7713 38.668 10.2493 39.0745 9.82727C39.4894 9.41375 39.9956 9.20695 40.5931 9.20695C40.8997 9.20695 41.1921 9.25971 41.4601 9.37524C41.7282 9.49069 41.9435 9.65186 42.1118 9.85867L42.618 9.35243C42.3884 9.09142 42.0976 8.89182 41.7367 8.74635C41.3759 8.60087 40.9995 8.53105 40.593 8.53105C39.7959 8.53105 39.12 8.80767 38.5681 9.35957C38.0163 9.91281 37.7396 10.5945 37.7396 11.4001C37.7396 12.2058 38.0162 12.8889 38.5681 13.4408C39.12 13.9926 39.7959 14.2693 40.593 14.2693C41.4301 14.2693 42.0975 14.0012 42.6108 13.4564C43.0629 13.003 43.2939 12.3898 43.2939 11.6227C43.2939 11.4929 43.2783 11.3544 43.2554 11.2089ZM44.2868 8.65357V14.1466H47.4938V13.4721H44.9927V11.7295H47.2487V11.0707H44.9927V9.32955H47.4938V8.65355L44.2868 8.65357ZM51.9909 9.32957V8.65357H48.2162V9.32957H49.7506V14.1466H50.4565V9.32957H51.9909ZM55.4082 8.65357H54.7024V14.1466H55.4082V8.65357ZM60.0673 9.32957V8.65357H56.2927V9.32957H57.827V14.1466H58.5329V9.32957H60.0673ZM67.1902 9.36808C66.6454 8.80763 65.9781 8.53101 65.1809 8.53101C64.3824 8.53101 63.7151 8.80763 63.1703 9.35952C62.6255 9.90428 62.3575 10.5873 62.3575 11.4001C62.3575 12.2129 62.6255 12.896 63.1703 13.4408C63.715 13.9926 64.3824 14.2693 65.1809 14.2693C65.9709 14.2693 66.6454 13.9926 67.1902 13.4408C67.7349 12.896 68.003 12.2129 68.003 11.4001C68.003 10.5944 67.7349 9.91273 67.1902 9.36808ZM63.6765 9.82723C64.0829 9.41371 64.5821 9.20691 65.1809 9.20691C65.7784 9.20691 66.2775 9.41371 66.6768 9.82723C67.0832 10.2336 67.2828 10.764 67.2828 11.4001C67.2828 12.0375 67.0832 12.5665 66.6768 12.973C66.2775 13.3865 65.7784 13.5947 65.1809 13.5947C64.582 13.5947 64.0829 13.3865 63.6765 12.973C63.2786 12.558 63.079 12.0375 63.079 11.4001C63.079 10.764 63.2786 10.2422 63.6765 9.82723ZM69.68 10.7256L69.6501 9.66603H69.68L72.4721 14.1465H73.2093V8.65352H72.5035V11.8677L72.5334 12.9273H72.5035L69.834 8.65352H68.9741V14.1465H69.68V10.7256Z" fill="black" stroke="black" stroke-width="0.222217" stroke-miterlimit="10"/>
</g>
<defs>
<clipPath id="clip0_292_12038">
<rect width="123.21" height="41.0699" fill="white"/>
</clipPath>
</defs>
</svg>
