<svg width="187" height="6" viewBox="0 0 187 6" fill="none" xmlns="http://www.w3.org/2000/svg">
<path d="M1.78118 0.0305095C2.82908 -0.0476489 4.2027 0.0359211 5.24664 0.150626C5.57381 0.186202 5.40814 0.345226 5.63399 0.376944C6.0757 0.438775 6.48722 0.360783 6.92372 0.434439C7.06839 0.459627 6.88831 0.711522 7.04 0.732167C7.87122 0.84349 8.65759 0.77933 9.49963 0.832875C13.6472 1.09706 17.7243 1.19161 21.9226 1.30638C23.3069 1.34401 24.9897 1.57262 26.4196 1.47264C26.5865 1.46075 26.487 1.23965 26.5187 1.22142C27.0168 0.942449 26.8512 1.3888 27.1764 1.44811C28.4672 1.68226 29.9026 1.70263 31.1448 1.6173C31.6733 1.58035 31.1434 1.14119 31.6755 1.38768C31.7125 1.40434 31.5784 1.63913 31.7233 1.66417C32.052 1.72049 32.6756 1.67853 32.9303 1.69713C33.4212 1.73417 33.5025 1.73181 33.9668 1.73448C34.6016 1.74018 35.3566 1.8569 36.0377 1.8037C36.183 1.79164 35.9906 1.55096 36.2224 1.51C36.4545 1.46911 37.0684 1.48951 37.2753 1.54625C37.4823 1.60302 37.3942 1.7922 37.4308 1.83556C37.7322 2.20155 38.4424 1.69465 38.5337 1.68212C40.1996 1.46852 41.6281 1.75728 43.1919 1.75646C44.379 1.75522 45.6483 1.65989 46.7779 1.67296C48.1236 1.68947 49.2641 1.81989 50.5715 1.79747C50.7094 1.79538 50.5477 1.51239 50.7163 1.50926C52.5066 1.47633 54.2845 1.50718 56.0671 1.69823C56.2459 1.71764 56.0155 1.9661 56.1941 2.00035C57.2876 2.20455 59.0179 2.69507 59.6674 1.61327C60.4081 1.65551 61.3074 1.69916 61.9701 1.91722C62.3974 2.05757 61.9824 2.32825 62.5072 2.21275C62.6256 2.18702 62.4717 1.94997 62.6492 1.92931C63.3966 1.84253 64.2132 1.91958 64.9526 1.79711C65.103 1.77164 65.0619 1.55923 65.1045 1.52098C65.4627 1.21122 66.0589 1.72328 66.1888 1.76048C67.1785 2.03795 67.9013 1.92876 68.8232 1.93553C69.0372 1.93722 68.7843 1.65192 68.9902 1.6433C70.0579 1.60241 71.164 1.62693 72.2095 1.75353C72.4421 1.78237 72.2282 2.0254 72.3393 2.05162C72.8293 2.16427 72.938 1.70525 73.4079 1.80443C73.507 1.82475 73.4512 2.0328 73.4693 2.05565C73.7521 2.41433 73.9979 1.9061 74.0706 1.89488C74.9909 1.74157 75.5791 2.27213 76.4682 2.19701C76.5745 2.18748 76.3347 1.92424 76.6337 1.91356C78.6255 1.84089 80.732 1.9132 82.7036 2.12376C83.0101 2.15615 82.7913 2.3539 82.8106 2.37828C83.125 2.75918 83.3284 2.24882 83.4284 2.2296C84.2169 2.09124 84.9535 2.51924 85.4892 1.91136C88.8287 2.12232 92.1528 1.78096 95.4647 2.32555C95.5068 2.33185 95.4314 2.58321 95.5154 2.59471C96.5269 2.73584 96.3327 2.34519 97.002 1.86742C97.1706 1.74745 97.6835 2.32428 97.7289 2.36656C97.8942 2.52237 97.7227 2.89632 97.7781 2.9265C98.2363 3.16345 98.1616 1.92678 98.7796 1.92638C98.799 1.92844 98.7178 2.15606 98.7697 2.1787C98.9308 2.24975 99.0906 2.1593 99.2483 2.23766C99.6093 2.41896 99.7378 3.01988 100.289 2.67015C100.359 2.62476 100.252 1.92327 100.804 1.95641C101.024 1.97021 101.998 1.95819 102.271 2.00365C102.543 2.04905 102.356 2.27511 102.376 2.2849C103.11 2.58382 102.832 2.7077 103.2 3.15025C103.567 3.59113 103.465 2.53959 103.615 2.42223C103.766 2.30519 104.304 2.55182 104.437 2.63756C104.569 2.72333 104.404 2.86697 104.521 2.91551C105.301 3.23264 104.864 2.39357 105.121 2.22667C105.726 1.83149 106.198 2.61131 106.753 2.68773C106.903 2.70836 106.78 2.53075 106.914 2.51414C107.443 2.45071 107.761 2.69404 108.364 2.47093C108.462 2.43457 108.949 1.96572 109.264 2.3098C109.308 2.35941 109.182 2.55374 109.407 2.59727C109.744 2.6626 110.351 2.70508 110.713 2.64012C110.981 2.59206 110.674 2.27185 111.011 2.37132C111.16 2.41574 110.883 2.60306 111.164 2.67088C111.444 2.73868 112.158 2.73045 112.43 2.72398C112.702 2.71737 112.553 2.47448 112.575 2.45811C112.708 2.36438 113.229 2.24725 113.275 2.24754C115.597 2.21789 117.739 2.62732 120 2.49181C120.177 2.48152 120.059 2.22539 120.086 2.22118C120.693 2.11386 120.214 2.79487 120.639 3.02281C120.577 2.50304 120.828 2.59715 121.256 2.54015C121.462 2.51225 121.35 2.31099 121.369 2.29039C121.674 1.9847 121.887 2.37954 121.942 2.46031C122.145 2.75743 122.365 2.40636 122.503 2.60496C122.641 2.80208 122.324 3.0943 122.734 3.09056C122.849 2.9045 122.544 2.41827 122.856 2.33946C124.031 2.04138 126.226 2.42288 127.171 2.46251C128.114 2.5021 128.419 2.46777 128.969 2.53502C129.961 2.6566 129.598 2.29585 130.214 2.13072C130.832 1.96562 130.532 2.85324 130.621 3.04405C130.708 3.23478 130.803 3.03844 130.912 3.14329C131.02 3.24812 130.786 3.37786 131.04 3.41722C131.295 3.45654 131.991 3.11722 132.081 2.91771C132.272 2.49501 131.958 2.05138 132.632 2.20726C132.67 2.21651 132.545 2.44991 132.693 2.47349C133.871 2.65317 135.095 2.66431 136.272 2.82323C136.434 2.84544 136.289 3.10509 136.383 3.12095C137.364 3.28703 137.013 2.84923 137.551 2.3629C137.43 3.01011 137.728 3.40607 138.472 3.40989C138.919 3.41242 138.842 3.12975 139.132 2.93052C139.219 2.87047 139.535 3.06456 139.593 2.93162C139.782 2.49708 139.483 2.01063 140.251 2.20433C140.285 2.21354 140.177 2.4514 140.294 2.4658C141.046 2.56009 141.136 2.10557 141.949 2.05052C142.586 2.00733 143.719 2.2845 144.445 2.32957C144.429 3.05722 145.115 2.8906 145.393 2.3889C145.864 2.40944 146.372 2.38108 146.827 2.45042C146.984 2.47407 146.881 2.68474 146.901 2.7075C147.204 3.06459 147.408 2.57649 147.51 2.55736C148.612 2.37134 149.509 2.74128 150.56 2.37975C150.598 2.36672 150.658 1.86128 150.939 2.23033C150.957 2.25577 150.61 2.48574 151.105 2.50352C151.599 2.52135 152.532 2.7923 153.218 2.55809C153.384 2.5017 153.805 2.09138 154.142 2.41197C154.187 2.45551 154.138 2.60047 154.203 2.68114C154.412 2.93817 154.527 2.42729 154.773 2.86131C155.02 3.29531 155.533 3.62035 156.225 3.3209C156.247 3.3122 156.411 2.90728 156.629 2.91368C156.976 2.92425 157.47 3.0086 157.833 3.00596C158.007 3.00456 157.895 2.75312 157.926 2.74852C159.094 2.60762 159.926 2.83178 161.178 2.92906C161.407 2.94739 162.067 2.60452 162.511 2.87559C162.999 3.17234 162.498 4.40674 163.619 4.11265C164.071 3.99502 164.644 2.42896 165.456 3.24034C167.033 3.03928 168.49 3.45454 170.071 3.16746C170.142 3.15474 170.367 2.71767 170.534 2.72362C170.782 2.73329 170.918 2.93758 171.095 2.95103C171.838 3.01257 172.517 2.83779 173.233 2.86497C173.504 2.87485 173.409 3.08608 173.733 3.09788C174.057 3.10949 174.273 2.83135 174.712 2.96568C175.044 3.06808 175.375 3.63659 175.815 3.70286C175.832 3.14208 176.134 3.15363 176.671 3.0056C176.774 2.97688 176.664 2.78169 176.712 2.75804C176.911 2.65744 177.095 2.81921 177.284 2.7097C177.33 2.6834 177.332 2.49189 177.369 2.45958C177.689 2.17754 178.214 2.60833 178.305 2.68333C178.651 2.96819 178.812 2.71911 179.078 2.83128C179.343 2.94344 178.947 3.08365 179.256 3.15172C179.898 3.2925 180.722 3.26157 181.374 3.27037C181.634 3.2727 181.457 3.01706 181.494 3.01146C182.032 2.94662 182.575 3.21854 182.874 2.70933C183.246 4.02596 183.198 2.58163 183.966 2.8452C184.027 2.86652 184.104 3.48914 183.872 3.58055C183.639 3.67187 183.287 3.47724 182.964 3.61973C182.888 3.65317 182.45 4.23661 182.391 4.27195C181.923 4.54816 181.857 3.61773 181.832 3.56663C181.552 3.01514 181.017 3.64368 180.876 3.68711C180.232 3.88612 179.685 3.75527 179.146 3.89732C178.794 3.98913 178.76 4.59859 178.483 4.57993C177.563 4.51827 177.242 3.66807 176.376 4.40525C176.19 4.56248 176.375 5.22861 175.709 4.70481C175.667 4.67179 175.173 4.19261 174.887 4.49571C174.851 4.53392 174.852 4.72805 174.805 4.74436C174.488 4.84985 174.276 4.69519 173.931 4.76926C173.586 4.84334 173.17 4.95376 172.776 4.88792C172.539 4.84854 172.234 4.48685 172.12 4.39829C171.799 4.1432 171.454 4.56145 171.255 4.25254C171.055 3.94208 171.447 3.4706 170.921 3.27C170.901 3.77437 170.856 4.29206 170.825 4.79929C169.672 4.78153 168.537 4.61844 167.38 4.64072C167.237 4.64399 167.384 4.91514 167.23 4.92564C166.581 4.96871 166.014 4.77542 165.342 4.85239C164.821 4.91302 164.25 5.20011 163.705 5.27244C163.373 4.69529 162.564 4.89122 161.977 4.83848C161.772 4.82025 161.786 4.66611 161.639 4.61582C161.088 4.42984 161.346 4.93985 161.195 5.02012C160.546 5.36267 160.49 4.20827 159.725 4.23679C159.685 4.23792 159.189 4.85326 159.121 4.89158C158.688 5.14145 159.049 4.6774 158.778 4.63194C158.283 4.54885 157.938 4.4019 157.357 4.58213C157.188 4.63552 156.781 5.01905 156.452 4.72239C156.409 4.68354 156.432 4.48015 156.398 4.46824C155.767 4.26969 155.75 4.90878 155.39 5.12522C155.029 5.34162 154.472 4.90044 154.359 4.77329C154.062 4.44436 154.586 4.63272 154.602 4.60044C154.791 4.2163 154.385 4.28244 154.074 4.24998C154.029 3.62335 153.595 3.66096 153.753 4.21885C153.77 4.27979 154.012 4.22135 154.074 4.24998C153.802 4.86479 153.325 4.94353 152.798 4.369C152.551 4.09972 152.785 3.78576 152.035 3.90061C151.696 3.95246 151.827 4.38393 151.527 4.50156C150.841 4.76996 149.951 4.36747 149.244 4.43089C148.988 4.45391 149.238 4.69009 149.062 4.71397C148.597 4.77806 148.187 4.60085 147.72 4.69163C147.677 4.70015 147.781 4.94739 147.636 4.95054C146.534 4.97925 145.575 4.82089 144.425 4.8165C143.87 4.8145 142.877 4.95085 142.301 4.92344C141.304 4.87738 140.077 4.51786 139.224 4.6052C138.669 4.66111 138.791 4.90839 138.552 5.07688C138.093 5.40348 137.28 4.81847 137.17 4.72788C137.167 4.72488 137.645 4.66659 137.39 4.53965C137.241 4.27515 137.175 4.72674 137.17 4.72788C137.098 4.66936 136.143 4.61323 135.953 4.6605C135.85 4.68633 135.908 4.92062 135.854 4.92966C134.576 5.13933 133.297 5.19888 132.001 5.08933C131.978 5.0846 132.013 4.82253 131.959 4.81467C131.209 4.69815 130.729 5.01874 130.11 5.20908C129.491 5.39934 129.001 5.33561 128.635 4.88572C128.168 4.94236 127.498 4.74347 127.113 4.62278C126.728 4.5021 126.674 5.01223 126.64 5.02231C125.583 5.3451 124.972 5.05311 123.875 5.00767C123.353 4.98519 122.319 5.05918 121.754 5.11497C121.307 5.15991 121.039 5.04035 120.627 5.1168C120.572 5.12701 120.628 5.35414 120.611 5.36289C120.152 5.63465 120.373 5.07937 120.278 4.9802C119.934 4.61956 119.722 4.42749 119.134 4.59715C118.999 4.636 118.604 5.43552 118.357 5.48227C118.036 5.5416 118.157 5.25502 117.82 5.32444C117.792 5.33012 117.798 5.50692 117.59 5.49912C116.626 5.46526 115.575 5.36238 114.574 5.3801C114.437 5.38184 114.613 5.66227 114.415 5.66941C113.487 5.70265 112.471 5.69227 111.567 5.56101C111.345 5.52782 111.484 5.33147 111.436 5.27317C111.139 4.92041 110.719 5.43296 110.65 5.44272C108.995 5.68903 107.729 5.22518 106.043 5.44602C105.951 5.45898 105.245 6.00844 104.929 5.53721C104.908 5.50585 104.596 5.02373 104.32 5.35337C104.303 5.37399 104.497 5.6222 104.158 5.5969C103.819 5.57166 103.273 5.73741 102.807 5.4647C102.66 5.37879 102.311 4.89786 101.871 5.28123C101.842 5.30799 101.162 6.17484 100.92 5.57676C100.88 5.47831 100.922 4.8454 100.396 5.1699C100.296 5.23281 100.478 5.37398 100.213 5.46213C99.8083 5.598 99.2713 5.42848 98.7732 5.71042C98.6864 5.76034 98.3165 6.18992 98.0199 5.86386C97.9735 5.8128 98.0617 5.6015 97.9051 5.57786C97.1601 5.46443 96.3802 5.60576 95.6238 5.45957C95.3559 5.4082 95.4929 5.06661 95.2136 4.97507C94.9343 4.88357 94.3716 4.79554 94.0794 4.95164C93.7871 5.1078 94.1064 5.65221 93.6685 5.69577C91.7648 5.88498 89.879 5.56561 87.9781 5.5189C87.6962 5.51192 87.9299 5.70672 87.5144 5.71042C85.9826 5.72492 83.338 5.90757 82.0088 5.49363C80.9438 5.16208 82.284 4.90967 81.4702 4.77476C81.0775 4.7104 80.6526 5.34333 80.5578 5.36326C79.6317 5.56567 78.9881 5.28529 78.1546 5.37131C77.9824 5.38916 78.1513 5.6457 78.0048 5.65806C77.5044 5.70254 76.9784 5.58804 76.5003 5.60898C76.2858 5.61897 76.3253 5.8149 76.1279 5.79978C75.6556 5.76585 75.238 5.68349 74.7776 5.49985C74.7356 5.48312 75.0185 5.23939 74.6691 5.23032C74.1036 5.21634 73.4016 5.03518 72.7509 5.22227C72.5579 5.27854 72.5503 5.72634 72.1353 5.41709C72.0483 5.3525 72.1593 4.81479 71.6759 5.27939C71.5946 5.3566 70.7826 5.98326 70.384 5.57932C70.2789 5.47301 70.0106 5.033 69.7784 5.10215C69.7469 5.11318 69.873 5.35371 69.6807 5.37717C69.0027 5.45567 68.2921 5.43001 67.5956 5.50535C67.4096 5.52594 67.6866 5.77484 67.4094 5.79758C66.647 5.86049 65.6952 5.79712 64.9497 5.71921C64.6749 5.69002 64.8649 5.48384 64.8449 5.4614C64.5233 5.09645 64.3331 5.58905 64.2264 5.61777C63.5626 5.78976 63.0571 5.55837 62.4452 5.6196C62.2763 5.63588 62.396 5.87075 62.3624 5.8917C62.0138 6.09633 62.2735 5.67452 62.0528 5.62803C61.4346 5.49637 60.7455 5.51525 60.1204 5.54526C59.8907 5.55663 60.1488 5.82898 59.9427 5.83603C58.723 5.88296 57.455 5.8569 56.2647 5.70676C56.0406 5.678 56.1816 5.46828 56.1349 5.42038C55.8129 5.08527 55.3411 5.54237 55.2325 5.58591C54.7388 5.78472 54.5471 5.59927 54.1111 5.63389C51.9814 5.80623 49.3517 5.6834 47.3414 5.60752C44.7217 5.50986 42.6889 5.31035 40.1908 5.36216C40.032 5.36519 40.1921 5.64417 40.0553 5.65036C38.2882 5.71762 36.5485 5.6086 34.7779 5.68918C34.6326 5.6953 34.842 5.95978 34.6088 5.97849C34.1305 6.01872 33.5245 6.00434 33.0409 5.91989C32.805 5.87921 33.1214 5.65226 32.8839 5.61594C32.3311 5.53085 31.7384 5.51202 31.1705 5.55442C30.9288 5.57304 31.2934 5.84353 30.9793 5.84665C28.8395 5.87349 26.7379 5.92007 24.5756 5.5698C24.4273 5.54574 24.2973 4.99599 23.9821 5.10142C23.9583 5.25399 23.9596 5.43346 23.9492 5.59653C20.8342 5.68438 17.751 5.4938 14.6272 5.46433C14.4955 5.46315 14.7231 5.75444 14.4681 5.75364C12.9923 5.74933 11.5592 5.83002 10.0496 5.5405C9.89984 5.51219 9.97669 4.99974 9.5353 5.07725C9.45745 5.09139 8.79266 5.15973 8.62078 5.27097C8.59744 5.28775 8.71872 5.52694 8.50451 5.53391C7.25962 5.57023 5.95506 5.51563 4.71234 5.36948C4.51177 5.34544 4.72536 5.09072 4.58251 5.07139C3.56919 4.93617 2.46698 5.1298 1.4987 4.89854C0.850566 4.74282 1.09052 4.30252 0.746115 3.86912C0.697401 3.80797 0.296058 3.79828 0.275304 3.54612C0.22202 2.91204 0.416418 2.21773 0.336652 1.54186C0.319799 1.39628 -0.217703 1.55308 0.100533 1.20128C0.122765 1.17774 0.512457 1.06098 0.608438 0.941639C0.675263 0.859129 0.554842 0.602682 0.691187 0.497061C0.82752 0.391538 0.977333 0.606507 1.20337 0.482412C1.42931 0.356782 1.32996 0.0650439 1.78118 0.0305095ZM125.378 4.08335C125.022 3.83837 124.969 4.73565 125.355 4.52097C125.373 4.50953 125.397 4.09537 125.378 4.08335ZM168.544 3.94163C168.077 3.54586 167.758 4.1278 168.087 4.43345C168.416 4.73877 168.686 4.0616 168.544 3.94163ZM173.38 3.65269C172.835 3.34065 172.749 4.61303 173.333 4.35581C173.367 4.34128 173.412 3.67081 173.38 3.65269ZM2.3433 3.74571C2.33838 3.73379 2.04988 3.72218 2.04298 3.73399C1.88936 4.01896 2.46625 4.04199 2.3433 3.74571ZM178.18 3.33812C178.01 3.166 177.52 3.36469 177.731 3.57872C177.901 3.7509 178.392 3.55222 178.18 3.33812ZM106.768 3.12571C106.762 3.11234 106.555 3.1003 106.559 3.17589C106.573 3.41932 106.861 3.35061 106.768 3.12571ZM186.337 3.32347C185.132 3.27557 184.401 2.22452 185.713 2.34312C185.951 2.36458 185.201 2.6783 185.504 2.77305C186.057 2.94569 186.425 2.28576 186.99 2.63939C187.092 2.70411 186.406 3.32854 186.335 3.32493C186.335 3.32444 186.336 3.32396 186.337 3.32347ZM125.173 3.0056C125.166 2.99373 124.879 2.98248 124.873 2.99425C124.717 3.27911 125.294 3.30194 125.173 3.0056ZM94.6986 2.57091C94.6828 2.54562 94.0183 2.52198 93.9966 2.54527C93.65 3.0111 94.9934 3.06029 94.6986 2.57091ZM144.456 2.34898C144.769 2.06241 145.142 2.02867 145.391 2.38853C145.081 2.36943 144.768 2.36662 144.456 2.34898Z" fill="url(#paint0_linear_498_2995)"/>
<defs>
<linearGradient id="paint0_linear_498_2995" x1="0" y1="3.5" x2="187" y2="3.5" gradientUnits="userSpaceOnUse">
<stop stop-color="#15C15D"/>
<stop offset="1" stop-color="#13EC6D"/>
</linearGradient>
</defs>
</svg>
